<svg width="756" height="756" viewBox="0 0 756 756" fill="none" xmlns="http://www.w3.org/2000/svg">
<g filter="url(#filter0_dd_513_99)">
<circle cx="379" cy="378" r="300" fill="#F0F5F8"/>
<circle cx="379" cy="378" r="298.5" stroke="black" stroke-width="3"/>
</g>
<path d="M384 401.957C382.62 401.957 381.5 400.838 381.5 399.457L381.5 168C381.5 166.619 382.62 165.5 384 165.5V165.5C385.381 165.5 386.5 166.619 386.5 168L386.5 399.457C386.5 400.838 385.381 401.957 384 401.957V401.957Z" fill="#FC3E55" fill-opacity="0.84"/>
<rect x="381.5" y="403" width="202.5" height="7.5" rx="3.75" transform="rotate(-90 381.5 403)" fill="#090909"/>
<rect x="376" y="77.9995" width="8" height="20" fill="#FB5B6F"/>
<rect x="224" y="124" width="8" height="20" transform="rotate(-30 224 124)" fill="#FB5B6F"/>
<rect x="119" y="229.928" width="8" height="20" transform="rotate(-60 119 229.928)" fill="#FB5B6F"/>
<rect x="79.0004" y="378" width="8" height="20" transform="rotate(-90 79.0004 378)" fill="#FB5B6F"/>
<rect x="115" y="519.928" width="8" height="20" transform="rotate(-120 115 519.928)" fill="#FB5B6F"/>
<rect x="220.929" y="630.32" width="8" height="20" transform="rotate(-150 220.929 630.32)" fill="#FB5B6F"/>
<rect x="379" y="678" width="8" height="20" transform="rotate(180 379 678)" fill="#FB5B6F"/>
<rect x="526.929" y="637.32" width="8" height="20" transform="rotate(150 526.929 637.32)" fill="#FB5B6F"/>
<rect x="639.321" y="526" width="8" height="20" transform="rotate(120 639.321 526)" fill="#FB5B6F"/>
<rect x="677" y="374" width="8" height="20" transform="rotate(90 677 374)" fill="#FB5B6F"/>
<rect x="630.321" y="220" width="8" height="20" transform="rotate(60 630.321 220)" fill="#FB5B6F"/>
<rect x="517" y="113" width="8" height="20" transform="rotate(30 517 113)" fill="#FB5B6F"/>
<rect x="344.653" y="79.8523" width="5" height="14" transform="rotate(-6 344.653 79.8523)" fill="#090909"/>
<rect x="198.294" y="141.489" width="5" height="14" transform="rotate(-36 198.294 141.489)" fill="#090909"/>
<rect x="104.941" y="257.812" width="5" height="14" transform="rotate(-66 104.941 257.812)" fill="#090909"/>
<rect x="80.6383" y="409.254" width="5" height="14" transform="rotate(-96 80.6383 409.254)" fill="#090909"/>
<rect x="131.277" y="546.642" width="5" height="14" transform="rotate(-126 131.277 546.642)" fill="#090909"/>
<rect x="248.164" y="645.357" width="5" height="14" transform="rotate(-156 248.164 645.357)" fill="#090909"/>
<rect x="410.354" y="676.252" width="5" height="14" transform="rotate(174 410.354 676.252)" fill="#090909"/>
<rect x="553.219" y="620.333" width="5" height="14" transform="rotate(144 553.219 620.333)" fill="#090909"/>
<rect x="653.36" y="497.874" width="5" height="14" transform="rotate(114 653.36 497.874)" fill="#090909"/>
<rect x="674.944" y="342.768" width="5" height="14" transform="rotate(84 674.944 342.768)" fill="#090909"/>
<rect x="612.423" y="194.491" width="5" height="14" transform="rotate(54 612.423 194.491)" fill="#090909"/>
<rect x="490.539" y="101.922" width="5" height="14" transform="rotate(24 490.539 101.922)" fill="#090909"/>
<rect x="313.671" y="84.9712" width="5" height="14" transform="rotate(-12 313.671 84.9712)" fill="#090909"/>
<rect x="174.556" y="161.569" width="5" height="14" transform="rotate(-42 174.556 161.569)" fill="#090909"/>
<rect x="93.8743" y="287.013" width="5" height="14" transform="rotate(-72 93.8743 287.013)" fill="#090909"/>
<rect x="85.5343" y="440.165" width="5" height="14" transform="rotate(-102 85.5343 440.165)" fill="#090909"/>
<rect x="150.256" y="571.507" width="5" height="14" transform="rotate(-132 150.256 571.507)" fill="#090909"/>
<rect x="276.821" y="657.463" width="5" height="14" transform="rotate(-162 276.821 657.463)" fill="#090909"/>
<rect x="441.352" y="671.236" width="5" height="14" transform="rotate(168 441.352 671.236)" fill="#090909"/>
<rect x="577.59" y="600.689" width="5" height="14" transform="rotate(138 577.59 600.689)" fill="#090909"/>
<rect x="664.381" y="468.434" width="5" height="14" transform="rotate(108 664.381 468.434)" fill="#090909"/>
<rect x="669.635" y="311.921" width="5" height="14" transform="rotate(78 669.635 311.921)" fill="#090909"/>
<rect x="591.957" y="170.992" width="5" height="14" transform="rotate(48 591.957 170.992)" fill="#090909"/>
<rect x="462.866" y="90.8909" width="5" height="14" transform="rotate(18 462.866 90.8909)" fill="#090909"/>
<rect x="283.393" y="93.3008" width="5" height="14" transform="rotate(-18 283.393 93.3008)" fill="#090909"/>
<rect x="153.047" y="184.02" width="5" height="14" transform="rotate(-48 153.047 184.02)" fill="#090909"/>
<rect x="85.92" y="317.21" width="5" height="14" transform="rotate(-78 85.92 317.21)" fill="#090909"/>
<rect x="93.6345" y="470.396" width="5" height="14" transform="rotate(-108 93.6345 470.396)" fill="#090909"/>
<rect x="171.731" y="594.253" width="5" height="14" transform="rotate(-138 171.731 594.253)" fill="#090909"/>
<rect x="306.588" y="666.509" width="5" height="14" transform="rotate(-168 306.588 666.509)" fill="#090909"/>
<rect x="471.657" y="663.008" width="5" height="14" transform="rotate(162 471.657 663.008)" fill="#090909"/>
<rect x="599.774" y="578.607" width="5" height="14" transform="rotate(132 599.774 578.607)" fill="#090909"/>
<rect x="672.266" y="438.003" width="5" height="14" transform="rotate(102 672.266 438.003)" fill="#090909"/>
<rect x="661.131" y="281.799" width="5" height="14" transform="rotate(72 661.131 281.799)" fill="#090909"/>
<rect x="569.147" y="149.761" width="5" height="14" transform="rotate(42 569.147 149.761)" fill="#090909"/>
<rect x="436.911" y="84.9998" width="5" height="14" transform="rotate(12 436.911 84.9998)" fill="#090909"/>
<rect x="254.152" y="104.75" width="5" height="14" transform="rotate(-24 254.152 104.75)" fill="#090909"/>
<rect x="134.003" y="208.597" width="5" height="14" transform="rotate(-54 134.003 208.597)" fill="#090909"/>
<rect x="81.166" y="348.074" width="5" height="14" transform="rotate(-84 81.166 348.074)" fill="#090909"/>
<rect x="104.85" y="499.614" width="5" height="14" transform="rotate(-114 104.85 499.614)" fill="#090909"/>
<rect x="195.466" y="614.629" width="5" height="14" transform="rotate(-144 195.466 614.629)" fill="#090909"/>
<rect x="337.136" y="672.393" width="5" height="14" transform="rotate(-174 337.136 672.393)" fill="#090909"/>
<rect x="500.935" y="651.657" width="5" height="14" transform="rotate(156 500.935 651.657)" fill="#090909"/>
<rect x="619.529" y="554.326" width="5" height="14" transform="rotate(126 619.529 554.326)" fill="#090909"/>
<rect x="676.926" y="406.916" width="5" height="14" transform="rotate(96 676.926 406.916)" fill="#090909"/>
<rect x="649.524" y="252.731" width="5" height="14" transform="rotate(66 649.524 252.731)" fill="#090909"/>
<rect x="544.242" y="131.031" width="5" height="14" transform="rotate(36 544.242 131.031)" fill="#090909"/>
<path d="M407.95 81.2607L412.923 81.7834L411.459 95.7067L406.487 95.1841L407.95 81.2607Z" fill="#090909"/>
<path d="M371.836 112.909V142H367.432V117.312H367.262L360.302 121.858V117.653L367.56 112.909H371.836ZM379.705 142V138.818L389.549 128.619C390.6 127.511 391.466 126.54 392.148 125.707C392.84 124.864 393.356 124.064 393.697 123.307C394.037 122.549 394.208 121.744 394.208 120.892C394.208 119.926 393.981 119.093 393.526 118.392C393.072 117.682 392.451 117.137 391.665 116.758C390.879 116.37 389.994 116.176 389.009 116.176C387.967 116.176 387.058 116.389 386.282 116.815C385.505 117.241 384.909 117.843 384.492 118.619C384.075 119.396 383.867 120.305 383.867 121.346H379.677C379.677 119.576 380.084 118.027 380.898 116.701C381.713 115.376 382.83 114.348 384.25 113.619C385.671 112.88 387.286 112.511 389.094 112.511C390.922 112.511 392.532 112.876 393.924 113.605C395.325 114.325 396.419 115.309 397.205 116.559C397.991 117.8 398.384 119.201 398.384 120.764C398.384 121.844 398.18 122.899 397.773 123.932C397.375 124.964 396.679 126.114 395.685 127.383C394.691 128.643 393.308 130.172 391.537 131.971L385.756 138.022V138.236H398.853V142H379.705Z" fill="black"/>
<path d="M245.836 146.909V176H241.432V151.312H241.262L234.302 155.858V151.653L241.56 146.909H245.836ZM264.742 146.909V176H260.339V151.312H260.168L253.208 155.858V151.653L260.466 146.909H264.742Z" fill="black"/>
<path d="M154.836 235.909V265H150.432V240.312H150.262L143.302 244.858V240.653L150.56 235.909H154.836ZM172.833 265.483C170.588 265.473 168.671 264.881 167.08 263.707C165.489 262.533 164.272 260.824 163.429 258.579C162.587 256.335 162.165 253.631 162.165 250.469C162.165 247.315 162.587 244.621 163.429 242.386C164.282 240.151 165.503 238.447 167.094 237.272C168.694 236.098 170.607 235.511 172.833 235.511C175.058 235.511 176.966 236.103 178.557 237.287C180.148 238.461 181.365 240.165 182.208 242.4C183.06 244.626 183.486 247.315 183.486 250.469C183.486 253.641 183.065 256.349 182.222 258.594C181.379 260.828 180.162 262.538 178.571 263.721C176.98 264.896 175.068 265.483 172.833 265.483ZM172.833 261.69C174.802 261.69 176.341 260.729 177.449 258.807C178.567 256.884 179.125 254.105 179.125 250.469C179.125 248.054 178.87 246.013 178.358 244.346C177.856 242.67 177.132 241.401 176.185 240.54C175.248 239.668 174.13 239.233 172.833 239.233C170.873 239.233 169.334 240.199 168.216 242.13C167.099 244.062 166.535 246.842 166.526 250.469C166.526 252.893 166.777 254.943 167.279 256.619C167.79 258.286 168.515 259.55 169.452 260.412C170.39 261.264 171.516 261.69 172.833 261.69Z" fill="black"/>
<path d="M117.472 359.511C118.769 359.521 120.048 359.757 121.307 360.221C122.567 360.685 123.703 361.443 124.716 362.494C125.739 363.545 126.553 364.966 127.159 366.755C127.775 368.536 128.087 370.752 128.097 373.403C128.097 375.951 127.841 378.219 127.33 380.207C126.819 382.186 126.085 383.858 125.128 385.221C124.181 386.585 123.031 387.622 121.677 388.332C120.322 389.042 118.798 389.397 117.103 389.397C115.37 389.397 113.831 389.057 112.486 388.375C111.141 387.693 110.048 386.751 109.205 385.548C108.362 384.336 107.837 382.944 107.628 381.372H111.961C112.245 382.622 112.822 383.635 113.694 384.412C114.574 385.179 115.711 385.562 117.103 385.562C119.233 385.562 120.895 384.634 122.088 382.778C123.282 380.913 123.883 378.308 123.892 374.966H123.665C123.173 375.78 122.557 376.481 121.819 377.068C121.089 377.655 120.27 378.11 119.361 378.432C118.452 378.754 117.481 378.915 116.449 378.915C114.773 378.915 113.248 378.503 111.875 377.679C110.502 376.855 109.409 375.723 108.594 374.284C107.78 372.844 107.373 371.201 107.373 369.355C107.373 367.518 107.789 365.851 108.623 364.355C109.465 362.859 110.64 361.675 112.145 360.804C113.66 359.923 115.436 359.492 117.472 359.511ZM117.486 363.204C116.378 363.204 115.379 363.479 114.489 364.028C113.608 364.568 112.912 365.302 112.401 366.23C111.89 367.148 111.634 368.171 111.634 369.298C111.634 370.425 111.88 371.448 112.373 372.366C112.874 373.275 113.556 374 114.418 374.54C115.289 375.07 116.284 375.335 117.401 375.335C118.234 375.335 119.011 375.174 119.73 374.852C120.45 374.53 121.08 374.085 121.62 373.517C122.159 372.939 122.581 372.286 122.884 371.557C123.187 370.827 123.338 370.06 123.338 369.255C123.338 368.185 123.083 367.191 122.571 366.272C122.069 365.354 121.378 364.615 120.498 364.057C119.617 363.488 118.613 363.204 117.486 363.204Z" fill="black"/>
<path d="M146.628 512.397C144.592 512.397 142.793 512.047 141.23 511.346C139.677 510.645 138.461 509.679 137.58 508.448C136.699 507.217 136.264 505.816 136.273 504.244C136.264 503.013 136.515 501.881 137.026 500.849C137.547 499.807 138.252 498.941 139.142 498.249C140.033 497.549 141.027 497.103 142.125 496.914V496.744C140.677 496.393 139.516 495.617 138.645 494.414C137.774 493.211 137.343 491.829 137.353 490.266C137.343 488.78 137.736 487.454 138.532 486.289C139.337 485.115 140.44 484.192 141.841 483.519C143.243 482.847 144.838 482.511 146.628 482.511C148.399 482.511 149.98 482.852 151.373 483.533C152.774 484.206 153.877 485.129 154.682 486.303C155.487 487.468 155.894 488.789 155.904 490.266C155.894 491.829 155.449 493.211 154.569 494.414C153.688 495.617 152.542 496.393 151.131 496.744V496.914C152.22 497.103 153.2 497.549 154.071 498.249C154.952 498.941 155.653 499.807 156.174 500.849C156.704 501.881 156.974 503.013 156.983 504.244C156.974 505.816 156.529 507.217 155.648 508.448C154.767 509.679 153.546 510.645 151.983 511.346C150.43 512.047 148.645 512.397 146.628 512.397ZM146.628 508.803C147.831 508.803 148.873 508.604 149.753 508.207C150.634 507.799 151.316 507.236 151.799 506.516C152.282 505.787 152.528 504.935 152.537 503.959C152.528 502.946 152.263 502.051 151.742 501.275C151.23 500.498 150.534 499.888 149.654 499.442C148.773 498.997 147.765 498.775 146.628 498.775C145.482 498.775 144.464 498.997 143.574 499.442C142.684 499.888 141.983 500.498 141.472 501.275C140.961 502.051 140.71 502.946 140.719 503.959C140.71 504.935 140.942 505.787 141.415 506.516C141.898 507.236 142.585 507.799 143.475 508.207C144.365 508.604 145.416 508.803 146.628 508.803ZM146.628 495.266C147.594 495.266 148.451 495.072 149.199 494.684C149.947 494.296 150.534 493.756 150.961 493.065C151.396 492.373 151.619 491.564 151.628 490.636C151.619 489.727 151.401 488.931 150.975 488.249C150.558 487.567 149.976 487.042 149.228 486.673C148.48 486.294 147.613 486.104 146.628 486.104C145.624 486.104 144.744 486.294 143.986 486.673C143.238 487.042 142.656 487.567 142.239 488.249C141.822 488.931 141.619 489.727 141.628 490.636C141.619 491.564 141.827 492.373 142.253 493.065C142.679 493.756 143.266 494.296 144.015 494.684C144.772 495.072 145.643 495.266 146.628 495.266Z" fill="black"/>
<path d="M228.779 606.999L241.478 581.885V581.672H226.79V577.908H246.023V581.8L233.367 606.999H228.779Z" fill="black"/>
<path d="M375.955 652.397C374.658 652.378 373.379 652.141 372.12 651.687C370.87 651.232 369.733 650.474 368.711 649.414C367.688 648.353 366.869 646.928 366.253 645.138C365.647 643.348 365.344 641.114 365.344 638.434C365.344 635.896 365.595 633.642 366.097 631.672C366.608 629.703 367.342 628.041 368.299 626.687C369.255 625.323 370.411 624.286 371.765 623.576C373.119 622.865 374.639 622.51 376.324 622.51C378.057 622.51 379.596 622.851 380.941 623.533C382.286 624.215 383.375 625.157 384.208 626.36C385.051 627.562 385.586 628.931 385.813 630.465H381.481C381.187 629.253 380.605 628.263 379.733 627.496C378.862 626.729 377.726 626.346 376.324 626.346C374.194 626.346 372.532 627.274 371.339 629.13C370.155 630.986 369.558 633.566 369.549 636.871H369.762C370.264 636.047 370.879 635.347 371.608 634.769C372.347 634.182 373.171 633.732 374.08 633.419C374.999 633.098 375.965 632.937 376.978 632.937C378.663 632.937 380.188 633.348 381.552 634.172C382.925 634.987 384.018 636.114 384.833 637.553C385.647 638.992 386.054 640.64 386.054 642.496C386.054 644.352 385.633 646.033 384.79 647.539C383.957 649.044 382.783 650.238 381.268 651.118C379.752 651.99 377.982 652.416 375.955 652.397ZM375.941 648.704C377.058 648.704 378.057 648.429 378.938 647.88C379.819 647.33 380.515 646.592 381.026 645.664C381.537 644.736 381.793 643.699 381.793 642.553C381.793 641.436 381.542 640.418 381.04 639.499C380.548 638.58 379.866 637.851 378.995 637.312C378.133 636.772 377.148 636.502 376.04 636.502C375.197 636.502 374.416 636.663 373.697 636.985C372.986 637.307 372.361 637.752 371.822 638.32C371.282 638.888 370.856 639.542 370.543 640.28C370.24 641.009 370.089 641.781 370.089 642.596C370.089 643.685 370.34 644.693 370.841 645.621C371.353 646.549 372.049 647.297 372.929 647.866C373.82 648.424 374.823 648.704 375.941 648.704Z" fill="black"/>
<path d="M504.4 616.397C502.62 616.397 501.02 616.056 499.599 615.374C498.188 614.683 497.061 613.736 496.219 612.533C495.376 611.33 494.926 609.957 494.869 608.414H499.131C499.235 609.664 499.789 610.691 500.792 611.496C501.796 612.301 502.999 612.704 504.4 612.704C505.518 612.704 506.507 612.448 507.369 611.937C508.24 611.416 508.922 610.701 509.415 609.792C509.917 608.883 510.167 607.846 510.167 606.681C510.167 605.497 509.912 604.441 509.4 603.513C508.889 602.585 508.184 601.856 507.284 601.326C506.394 600.795 505.371 600.526 504.216 600.516C503.335 600.516 502.45 600.668 501.56 600.971C500.669 601.274 499.95 601.671 499.4 602.164L495.381 601.567L497.014 586.908H513.008V590.672H500.665L499.741 598.812H499.912C500.48 598.262 501.233 597.803 502.17 597.434C503.117 597.064 504.131 596.88 505.21 596.88C506.981 596.88 508.558 597.301 509.94 598.144C511.332 598.987 512.426 600.137 513.221 601.596C514.026 603.044 514.424 604.711 514.415 606.596C514.424 608.48 513.998 610.161 513.136 611.638C512.284 613.116 511.1 614.28 509.585 615.133C508.079 615.975 506.351 616.397 504.4 616.397Z" fill="black"/>
<path d="M595.188 518.317V514.766L607.759 494.908H610.557V500.136H608.781L599.79 514.369V514.596H617.02V518.317H595.188ZM608.98 523.999V517.238L609.009 515.619V494.908H613.17V523.999H608.98Z" fill="black"/>
<path d="M638.926 389.397C636.975 389.397 635.233 389.061 633.699 388.389C632.174 387.717 630.967 386.784 630.077 385.591C629.196 384.388 628.723 382.996 628.656 381.415H633.116C633.173 382.276 633.462 383.024 633.983 383.659C634.513 384.284 635.205 384.767 636.057 385.108C636.909 385.449 637.856 385.619 638.898 385.619C640.044 385.619 641.057 385.42 641.938 385.022C642.828 384.625 643.524 384.071 644.026 383.361C644.527 382.641 644.778 381.812 644.778 380.875C644.778 379.899 644.527 379.042 644.026 378.304C643.533 377.556 642.809 376.969 641.852 376.542C640.905 376.116 639.759 375.903 638.415 375.903H635.957V372.324H638.415C639.494 372.324 640.441 372.129 641.256 371.741C642.08 371.353 642.723 370.813 643.188 370.122C643.652 369.421 643.884 368.602 643.884 367.665C643.884 366.765 643.68 365.984 643.273 365.321C642.875 364.648 642.307 364.123 641.568 363.744C640.839 363.365 639.977 363.176 638.983 363.176C638.036 363.176 637.151 363.351 636.327 363.701C635.512 364.042 634.849 364.535 634.338 365.179C633.827 365.813 633.552 366.576 633.514 367.466H629.267C629.314 365.894 629.778 364.511 630.659 363.318C631.549 362.125 632.723 361.192 634.182 360.52C635.64 359.847 637.259 359.511 639.04 359.511C640.905 359.511 642.515 359.876 643.869 360.605C645.233 361.325 646.284 362.286 647.023 363.488C647.771 364.691 648.14 366.007 648.131 367.437C648.14 369.066 647.686 370.449 646.767 371.585C645.858 372.721 644.646 373.484 643.131 373.872V374.099C645.063 374.393 646.559 375.16 647.619 376.4C648.689 377.641 649.22 379.18 649.21 381.017C649.22 382.617 648.775 384.052 647.875 385.321C646.985 386.59 645.768 387.589 644.224 388.318C642.681 389.038 640.915 389.397 638.926 389.397Z" fill="black"/>
<path d="M591.798 265V261.818L601.642 251.619C602.693 250.511 603.56 249.54 604.241 248.707C604.933 247.864 605.449 247.064 605.79 246.307C606.131 245.549 606.301 244.744 606.301 243.892C606.301 242.926 606.074 242.093 605.619 241.392C605.165 240.682 604.545 240.137 603.759 239.758C602.973 239.37 602.087 239.176 601.102 239.176C600.061 239.176 599.152 239.389 598.375 239.815C597.598 240.241 597.002 240.843 596.585 241.619C596.169 242.396 595.96 243.305 595.96 244.346H591.77C591.77 242.576 592.177 241.027 592.991 239.701C593.806 238.376 594.923 237.348 596.344 236.619C597.764 235.88 599.379 235.511 601.188 235.511C603.015 235.511 604.625 235.876 606.017 236.605C607.419 237.325 608.512 238.309 609.298 239.559C610.084 240.8 610.477 242.201 610.477 243.764C610.477 244.844 610.274 245.899 609.866 246.932C609.469 247.964 608.773 249.114 607.778 250.383C606.784 251.643 605.402 253.172 603.631 254.971L597.849 261.022V261.236H610.946V265H591.798Z" fill="black"/>
<path d="M508.835 143.909V173H504.432V148.312H504.261L497.301 152.858V148.653L504.56 143.909H508.835Z" fill="black"/>
<defs>
<filter id="filter0_dd_513_99" x="49.0004" y="47.9995" width="660" height="660" filterUnits="userSpaceOnUse" color-interpolation-filters="sRGB">
<feFlood flood-opacity="0" result="BackgroundImageFix"/>
<feColorMatrix in="SourceAlpha" type="matrix" values="0 0 0 0 0 0 0 0 0 0 0 0 0 0 0 0 0 0 127 0" result="hardAlpha"/>
<feOffset dx="10" dy="10"/>
<feGaussianBlur stdDeviation="10"/>
<feColorMatrix type="matrix" values="0 0 0 0 0 0 0 0 0 0 0 0 0 0 0 0 0 0 0.25 0"/>
<feBlend mode="normal" in2="BackgroundImageFix" result="effect1_dropShadow_513_99"/>
<feColorMatrix in="SourceAlpha" type="matrix" values="0 0 0 0 0 0 0 0 0 0 0 0 0 0 0 0 0 0 127 0" result="hardAlpha"/>
<feOffset dx="-10" dy="-10"/>
<feGaussianBlur stdDeviation="10"/>
<feColorMatrix type="matrix" values="0 0 0 0 1 0 0 0 0 1 0 0 0 0 1 0 0 0 1 0"/>
<feBlend mode="normal" in2="effect1_dropShadow_513_99" result="effect2_dropShadow_513_99"/>
<feBlend mode="normal" in="SourceGraphic" in2="effect2_dropShadow_513_99" result="shape"/>
</filter>
</defs>
</svg>
