<svg width="300" height="300" viewBox="0 0 300 300" fill="none" xmlns="http://www.w3.org/2000/svg">
<g filter="url(#filter0_dd_506_55)">
<circle cx="150" cy="150" r="120" fill="#F0F5F8"/>
<circle cx="150" cy="150" r="118.5" stroke="black" stroke-width="3"/>
</g>
<path d="M146.407 53H144.772V42.1631L141.494 43.3672V41.8906L146.152 40.1416H146.407V53ZM159.556 53H151.171V51.8311L155.601 46.9092C156.257 46.165 156.708 45.5615 156.954 45.0986C157.206 44.6299 157.332 44.1465 157.332 43.6484C157.332 42.9805 157.13 42.4326 156.726 42.0049C156.321 41.5771 155.782 41.3633 155.108 41.3633C154.3 41.3633 153.67 41.5947 153.219 42.0576C152.773 42.5146 152.551 43.1533 152.551 43.9736H150.925C150.925 42.7959 151.303 41.8438 152.059 41.1172C152.82 40.3906 153.837 40.0273 155.108 40.0273C156.298 40.0273 157.238 40.3408 157.93 40.9678C158.621 41.5889 158.967 42.418 158.967 43.4551C158.967 44.7148 158.164 46.2148 156.559 47.9551L153.131 51.6729H159.556V53Z" fill="black"/>
<path d="M94.4072 52.1328V65H92.7812V54.1631L89.5029 55.3584V53.8906L94.1523 52.1328H94.4072ZM104.532 52.1328V65H102.906V54.1631L99.6279 55.3584V53.8906L104.277 52.1328H104.532Z" fill="black"/>
<path d="M54.4072 91.1328V104H52.7812V93.1631L49.5029 94.3584V92.8906L54.1523 91.1328H54.4072ZM67.2217 96.582V98.5332C67.2217 99.582 67.1279 100.467 66.9404 101.188C66.7529 101.908 66.4834 102.488 66.1318 102.928C65.7803 103.367 65.3555 103.687 64.8574 103.886C64.3652 104.079 63.8086 104.176 63.1875 104.176C62.6953 104.176 62.2412 104.114 61.8252 103.991C61.4092 103.868 61.0342 103.672 60.7002 103.402C60.3721 103.127 60.0908 102.77 59.8564 102.33C59.6221 101.891 59.4434 101.357 59.3203 100.73C59.1973 100.104 59.1357 99.3711 59.1357 98.5332V96.582C59.1357 95.5332 59.2295 94.6543 59.417 93.9453C59.6104 93.2363 59.8828 92.668 60.2344 92.2402C60.5859 91.8066 61.0078 91.4961 61.5 91.3086C61.998 91.1211 62.5547 91.0273 63.1699 91.0273C63.668 91.0273 64.125 91.0889 64.541 91.2119C64.9629 91.3291 65.3379 91.5195 65.666 91.7832C65.9941 92.041 66.2725 92.3867 66.501 92.8203C66.7354 93.248 66.9141 93.7725 67.0371 94.3936C67.1602 95.0146 67.2217 95.7441 67.2217 96.582ZM65.5869 98.7969V96.3096C65.5869 95.7354 65.5518 95.2314 65.4814 94.7979C65.417 94.3584 65.3203 93.9834 65.1914 93.6729C65.0625 93.3623 64.8984 93.1104 64.6992 92.917C64.5059 92.7236 64.2803 92.583 64.0225 92.4951C63.7705 92.4014 63.4863 92.3545 63.1699 92.3545C62.7832 92.3545 62.4404 92.4277 62.1416 92.5742C61.8428 92.7148 61.5908 92.9404 61.3857 93.251C61.1865 93.5615 61.0342 93.9688 60.9287 94.4727C60.8232 94.9766 60.7705 95.5889 60.7705 96.3096V98.7969C60.7705 99.3711 60.8027 99.8779 60.8672 100.317C60.9375 100.757 61.04 101.138 61.1748 101.46C61.3096 101.776 61.4736 102.037 61.667 102.242C61.8604 102.447 62.083 102.6 62.335 102.699C62.5928 102.793 62.877 102.84 63.1875 102.84C63.5859 102.84 63.9346 102.764 64.2334 102.611C64.5322 102.459 64.7812 102.222 64.9805 101.899C65.1855 101.571 65.3379 101.152 65.4375 100.643C65.5371 100.127 65.5869 99.5117 65.5869 98.7969Z" fill="black"/>
<path d="M253.428 148.811H254.649C255.417 148.799 256.021 148.597 256.46 148.204C256.899 147.812 257.119 147.281 257.119 146.613C257.119 145.113 256.372 144.363 254.878 144.363C254.175 144.363 253.612 144.565 253.19 144.97C252.774 145.368 252.566 145.898 252.566 146.561H250.94C250.94 145.547 251.31 144.706 252.048 144.038C252.792 143.364 253.735 143.027 254.878 143.027C256.085 143.027 257.031 143.347 257.717 143.985C258.402 144.624 258.745 145.512 258.745 146.648C258.745 147.205 258.563 147.744 258.2 148.266C257.843 148.787 257.354 149.177 256.732 149.435C257.436 149.657 257.978 150.026 258.358 150.542C258.745 151.058 258.938 151.688 258.938 152.432C258.938 153.58 258.563 154.491 257.813 155.165C257.063 155.839 256.088 156.176 254.887 156.176C253.686 156.176 252.707 155.851 251.951 155.2C251.201 154.55 250.826 153.691 250.826 152.625H252.461C252.461 153.299 252.681 153.838 253.12 154.242C253.56 154.646 254.148 154.849 254.887 154.849C255.672 154.849 256.272 154.644 256.688 154.233C257.104 153.823 257.312 153.234 257.312 152.467C257.312 151.723 257.084 151.151 256.627 150.753C256.17 150.354 255.511 150.149 254.649 150.138H253.428V148.811Z" fill="black"/>
<path d="M244.712 202.693V204.029H235.466V203.071L241.196 194.203H242.523L241.1 196.77L237.312 202.693H244.712ZM242.928 194.203V207H241.302V194.203H242.928Z" fill="black"/>
<path d="M201.12 238.909L199.819 238.575L200.461 232.203H207.026V233.706H201.841L201.454 237.187C201.688 237.052 201.984 236.926 202.342 236.809C202.705 236.691 203.121 236.633 203.59 236.633C204.182 236.633 204.712 236.735 205.181 236.94C205.649 237.14 206.048 237.427 206.376 237.802C206.71 238.177 206.965 238.628 207.141 239.155C207.316 239.683 207.404 240.271 207.404 240.922C207.404 241.537 207.319 242.103 207.149 242.618C206.985 243.134 206.736 243.585 206.402 243.972C206.068 244.353 205.646 244.648 205.137 244.859C204.633 245.07 204.038 245.176 203.353 245.176C202.837 245.176 202.348 245.105 201.885 244.965C201.428 244.818 201.018 244.599 200.654 244.306C200.297 244.007 200.004 243.638 199.775 243.198C199.553 242.753 199.412 242.231 199.354 241.634H200.9C200.971 242.114 201.111 242.519 201.322 242.847C201.533 243.175 201.809 243.424 202.148 243.594C202.494 243.758 202.896 243.84 203.353 243.84C203.739 243.84 204.082 243.772 204.381 243.638C204.68 243.503 204.932 243.31 205.137 243.058C205.342 242.806 205.497 242.501 205.603 242.144C205.714 241.786 205.77 241.385 205.77 240.939C205.77 240.535 205.714 240.16 205.603 239.814C205.491 239.469 205.324 239.167 205.102 238.909C204.885 238.651 204.618 238.452 204.302 238.312C203.985 238.165 203.622 238.092 203.212 238.092C202.667 238.092 202.254 238.165 201.973 238.312C201.697 238.458 201.413 238.657 201.12 238.909Z" fill="black"/>
<path d="M205.407 52.1328V65H203.781V54.1631L200.503 55.3584V53.8906L205.152 52.1328H205.407Z" fill="black"/>
<path d="M247.448 98.6641V100H239.072V98.8311L243.265 94.1641C243.78 93.5898 244.179 93.1035 244.46 92.7051C244.747 92.3008 244.946 91.9404 245.058 91.624C245.175 91.3018 245.233 90.9736 245.233 90.6396C245.233 90.2178 245.146 89.8369 244.97 89.4971C244.8 89.1514 244.548 88.876 244.214 88.6709C243.88 88.4658 243.476 88.3633 243.001 88.3633C242.433 88.3633 241.958 88.4746 241.577 88.6973C241.202 88.9141 240.921 89.2188 240.733 89.6113C240.546 90.0039 240.452 90.4551 240.452 90.9648H238.826C238.826 90.2441 238.984 89.585 239.301 88.9873C239.617 88.3896 240.086 87.915 240.707 87.5635C241.328 87.2061 242.093 87.0273 243.001 87.0273C243.81 87.0273 244.501 87.1709 245.075 87.458C245.649 87.7393 246.089 88.1377 246.394 88.6533C246.704 89.1631 246.859 89.7607 246.859 90.4463C246.859 90.8213 246.795 91.2021 246.666 91.5889C246.543 91.9697 246.37 92.3506 246.147 92.7314C245.931 93.1123 245.676 93.4873 245.383 93.8564C245.096 94.2256 244.788 94.5889 244.46 94.9463L241.032 98.6641H247.448Z" fill="black"/>
<path d="M51.2949 150.375C50.9551 150.779 50.5479 151.104 50.0732 151.351C49.6045 151.597 49.0889 151.72 48.5264 151.72C47.7881 151.72 47.1436 151.538 46.5928 151.175C46.0479 150.812 45.626 150.302 45.3271 149.646C45.0283 148.983 44.8789 148.254 44.8789 147.457C44.8789 146.602 45.04 145.831 45.3623 145.146C45.6904 144.46 46.1533 143.936 46.751 143.572C47.3486 143.209 48.0459 143.027 48.8428 143.027C50.1084 143.027 51.1045 143.502 51.8311 144.451C52.5635 145.395 52.9297 146.684 52.9297 148.318V148.793C52.9297 151.283 52.4375 153.103 51.4531 154.251C50.4688 155.394 48.9834 155.979 46.9971 156.009H46.6807V154.638H47.0234C48.3652 154.614 49.3965 154.266 50.1172 153.592C50.8379 152.912 51.2305 151.84 51.2949 150.375ZM48.79 150.375C49.335 150.375 49.8359 150.208 50.293 149.874C50.7559 149.54 51.0928 149.127 51.3037 148.635V147.984C51.3037 146.918 51.0723 146.051 50.6094 145.383C50.1465 144.715 49.5605 144.381 48.8516 144.381C48.1367 144.381 47.5625 144.656 47.1289 145.207C46.6953 145.752 46.4785 146.473 46.4785 147.369C46.4785 148.242 46.6865 148.963 47.1025 149.531C47.5244 150.094 48.0869 150.375 48.79 150.375Z" fill="black"/>
<path d="M65.1318 203.537C65.1318 204.316 64.9502 204.979 64.5869 205.523C64.2295 206.062 63.7432 206.473 63.1279 206.754C62.5186 207.035 61.8301 207.176 61.0625 207.176C60.2949 207.176 59.6035 207.035 58.9883 206.754C58.373 206.473 57.8867 206.062 57.5293 205.523C57.1719 204.979 56.9932 204.316 56.9932 203.537C56.9932 203.027 57.0898 202.562 57.2832 202.14C57.4824 201.712 57.7607 201.34 58.1182 201.023C58.4814 200.707 58.9092 200.464 59.4014 200.294C59.8994 200.118 60.4473 200.03 61.0449 200.03C61.8301 200.03 62.5303 200.183 63.1455 200.487C63.7607 200.786 64.2441 201.199 64.5957 201.727C64.9531 202.254 65.1318 202.857 65.1318 203.537ZM63.4971 203.502C63.4971 203.027 63.3945 202.608 63.1895 202.245C62.9844 201.876 62.6973 201.589 62.3281 201.384C61.959 201.179 61.5312 201.076 61.0449 201.076C60.5469 201.076 60.1162 201.179 59.7529 201.384C59.3955 201.589 59.1172 201.876 58.918 202.245C58.7188 202.608 58.6191 203.027 58.6191 203.502C58.6191 203.994 58.7158 204.416 58.9092 204.768C59.1084 205.113 59.3896 205.38 59.7529 205.567C60.1221 205.749 60.5586 205.84 61.0625 205.84C61.5664 205.84 62 205.749 62.3633 205.567C62.7266 205.38 63.0049 205.113 63.1982 204.768C63.3975 204.416 63.4971 203.994 63.4971 203.502ZM64.833 197.534C64.833 198.155 64.6689 198.715 64.3408 199.213C64.0127 199.711 63.5645 200.104 62.9961 200.391C62.4277 200.678 61.7832 200.821 61.0625 200.821C60.3301 200.821 59.6768 200.678 59.1025 200.391C58.5342 200.104 58.0889 199.711 57.7666 199.213C57.4443 198.715 57.2832 198.155 57.2832 197.534C57.2832 196.79 57.4443 196.157 57.7666 195.636C58.0947 195.114 58.543 194.716 59.1113 194.44C59.6797 194.165 60.3271 194.027 61.0537 194.027C61.7861 194.027 62.4365 194.165 63.0049 194.44C63.5732 194.716 64.0186 195.114 64.3408 195.636C64.6689 196.157 64.833 196.79 64.833 197.534ZM63.207 197.561C63.207 197.133 63.1162 196.755 62.9346 196.427C62.7529 196.099 62.501 195.841 62.1787 195.653C61.8564 195.46 61.4814 195.363 61.0537 195.363C60.626 195.363 60.251 195.454 59.9287 195.636C59.6123 195.812 59.3633 196.063 59.1816 196.392C59.0059 196.72 58.918 197.109 58.918 197.561C58.918 198 59.0059 198.384 59.1816 198.712C59.3633 199.04 59.6152 199.295 59.9375 199.477C60.2598 199.658 60.6348 199.749 61.0625 199.749C61.4902 199.749 61.8623 199.658 62.1787 199.477C62.501 199.295 62.7529 199.04 62.9346 198.712C63.1162 198.384 63.207 198 63.207 197.561Z" fill="black"/>
<path d="M102.334 230.203V231.117L97.0342 243H95.3203L100.611 231.539H93.6855V230.203H102.334Z" fill="black"/>
<path d="M149.444 253.194V254.574H149.146C147.88 254.598 146.872 254.973 146.122 255.699C145.372 256.426 144.938 257.448 144.821 258.767C145.495 257.993 146.415 257.606 147.581 257.606C148.694 257.606 149.582 257.999 150.244 258.784C150.912 259.569 151.246 260.583 151.246 261.825C151.246 263.144 150.886 264.198 150.165 264.989C149.45 265.78 148.489 266.176 147.282 266.176C146.058 266.176 145.064 265.707 144.303 264.77C143.541 263.826 143.16 262.613 143.16 261.131V260.507C143.16 258.151 143.661 256.353 144.663 255.11C145.671 253.862 147.168 253.224 149.154 253.194H149.444ZM147.309 258.96C146.752 258.96 146.239 259.127 145.771 259.461C145.302 259.795 144.977 260.214 144.795 260.718V261.315C144.795 262.37 145.032 263.22 145.507 263.864C145.981 264.509 146.573 264.831 147.282 264.831C148.015 264.831 148.589 264.562 149.005 264.022C149.427 263.483 149.638 262.777 149.638 261.904C149.638 261.025 149.424 260.316 148.996 259.777C148.574 259.232 148.012 258.96 147.309 258.96Z" fill="black"/>
<path d="M152 159.583C151.448 159.583 151 159.135 151 158.583L151 66.0001C151 65.4478 151.448 65.0001 152 65.0001V65.0001C152.552 65.0001 153 65.4478 153 66.0001V158.583C153 159.135 152.552 159.583 152 159.583V159.583Z" fill="#FC3E55" fill-opacity="0.84"/>
<rect x="151" y="160" width="81" height="3" rx="1.5" transform="rotate(-90 151 160)" fill="#090909"/>
<defs>
<filter id="filter0_dd_506_55" x="0" y="0" width="300" height="300" filterUnits="userSpaceOnUse" color-interpolation-filters="sRGB">
<feFlood flood-opacity="0" result="BackgroundImageFix"/>
<feColorMatrix in="SourceAlpha" type="matrix" values="0 0 0 0 0 0 0 0 0 0 0 0 0 0 0 0 0 0 127 0" result="hardAlpha"/>
<feOffset dx="10" dy="10"/>
<feGaussianBlur stdDeviation="10"/>
<feColorMatrix type="matrix" values="0 0 0 0 0 0 0 0 0 0 0 0 0 0 0 0 0 0 0.25 0"/>
<feBlend mode="normal" in2="BackgroundImageFix" result="effect1_dropShadow_506_55"/>
<feColorMatrix in="SourceAlpha" type="matrix" values="0 0 0 0 0 0 0 0 0 0 0 0 0 0 0 0 0 0 127 0" result="hardAlpha"/>
<feOffset dx="-10" dy="-10"/>
<feGaussianBlur stdDeviation="10"/>
<feColorMatrix type="matrix" values="0 0 0 0 1 0 0 0 0 1 0 0 0 0 1 0 0 0 1 0"/>
<feBlend mode="normal" in2="effect1_dropShadow_506_55" result="effect2_dropShadow_506_55"/>
<feBlend mode="normal" in="SourceGraphic" in2="effect2_dropShadow_506_55" result="shape"/>
</filter>
</defs>
</svg>
