<svg width="449" height="429" viewBox="0 0 449 429" fill="none" xmlns="http://www.w3.org/2000/svg">
<g filter="url(#filter0_d_475_32)">
<path d="M34.0993 405C34.0993 363.029 68.1281 329 110.099 329C152.071 329 186.099 363.029 186.099 405" stroke="#FFD2D2" stroke-width="60" stroke-miterlimit="10"/>
<path d="M338.099 30C380.071 30 414.099 64.0288 414.099 106C414.099 147.971 380.071 182 338.099 182" stroke="#FFD2D2" stroke-width="60" stroke-miterlimit="10"/>
<path d="M184.53 93.195C177.702 83.3724 168.103 75.8898 159.596 67.484C151.088 59.0783 139.134 45.701 137.599 33.8372C137.306 31.5672 138.723 31.4602 138.723 31.4602C137.138 31.0966 135.536 32.3298 134.93 33.8372C134.32 35.3457 134.463 37.0359 134.64 38.6521C136.586 56.3934 141.851 73.7366 149.906 89.6494C157.554 104.758 168.654 122.431 182.558 132.536C184.421 129.673 187.776 129.204 189.872 126.75C191.965 124.297 192.257 120.153 192.366 117.091C192.665 108.58 189.328 100.096 184.53 93.195Z" fill="#39B54A"/>
<path d="M212.806 101.623C210.251 92.2244 205.135 83.7742 200.576 75.1708C196.016 66.5675 191.891 57.3773 191.619 47.6438C189.343 71.1653 190.121 94.9789 193.934 118.303C194.583 122.271 195.434 126.465 198.184 129.402C204.236 135.859 209.972 129.856 212.313 123.906C215.078 116.867 214.759 108.82 212.806 101.623Z" fill="#59B539"/>
<path d="M142.858 51.6624C141.704 50.7149 140.551 49.7708 139.396 48.8233C139.076 48.5596 138.456 48.7569 138.516 49.2362C138.718 50.8339 138.917 52.4359 139.118 54.0335C139.153 54.3178 139.365 54.5533 139.668 54.5419C139.934 54.5311 140.211 54.2768 140.176 53.9925C139.975 52.3949 139.775 50.7929 139.574 49.1952C139.281 49.3325 138.986 49.4709 138.693 49.6082C139.848 50.5557 141.001 51.4998 142.155 52.4473C142.672 52.8774 143.384 52.0971 142.858 51.6624Z" fill="#A0EF92"/>
<path d="M148.622 70.7042C147.773 70.738 146.92 70.773 146.071 70.8102C145.63 70.8286 145.482 71.2783 145.648 71.6279C146.168 72.718 147.224 73.3202 148.02 74.1748C148.372 74.5503 148.749 75.073 148.697 75.6176C148.655 76.0555 148.376 76.5135 147.901 76.517C147.419 76.5226 147.256 77.1246 147.569 77.435C148.401 78.2634 149.237 79.0941 150.069 79.9225C150.55 80.401 151.258 79.6184 150.777 79.1399C149.945 78.3115 149.108 77.4808 148.276 76.6524C148.166 76.9569 148.054 77.2659 147.944 77.5704C149.43 77.552 150.073 75.8114 149.553 74.5956C148.919 73.0988 147.22 72.4944 146.533 71.0547C146.391 71.3288 146.252 71.5984 146.11 71.8724C146.959 71.8386 147.812 71.8037 148.661 71.7664C149.344 71.7303 149.3 70.6768 148.622 70.7042Z" fill="#A0EF92"/>
<path d="M162.141 99.4178C163.085 100.75 162.783 102.762 161.437 103.718C160.94 104.072 161.308 104.801 161.886 104.665C162.662 104.481 163.546 104.776 164.033 105.415C164.561 106.111 164.556 107.058 164.126 107.797C163.961 108.078 164.154 108.5 164.478 108.556C166.045 108.815 166.788 110.606 167.504 111.822C168.475 113.47 169.522 115.069 170.646 116.617C172.887 119.704 175.418 122.588 178.19 125.211C179.768 126.699 181.426 128.103 183.154 129.415C183.69 129.824 184.402 129.044 183.861 128.632C177.639 123.905 172.355 117.986 168.388 111.249C167.514 109.766 166.604 107.843 164.709 107.53C164.827 107.784 164.944 108.035 165.062 108.289C165.698 107.201 165.634 105.747 164.84 104.748C164.059 103.767 162.769 103.38 161.564 103.667C161.712 103.982 161.864 104.295 162.013 104.613C163.813 103.339 164.31 100.666 163.024 98.8524C162.632 98.2905 161.747 98.8637 162.141 99.4178Z" fill="#A0EF92"/>
<path d="M206.394 130.259C210.106 126.907 212.473 122.122 212.97 117.148C213.113 115.718 213.114 114.281 212.948 112.853C212.903 112.454 212.493 112.211 212.131 112.43C211.691 112.695 211.255 112.963 210.815 113.229C211.089 113.37 211.359 113.51 211.633 113.652C211.284 109.778 210.93 105.903 210.581 102.029C210.495 101.075 210.406 100.121 210.321 99.169C210.282 98.7344 210.241 98.3009 210.203 97.8697C210.156 97.3382 209.942 96.9079 209.731 96.4208C208.967 94.6552 208.201 92.8861 207.436 91.1205C206.556 89.085 205.677 87.0495 204.798 85.0174C204.632 84.6345 204.212 84.5352 203.901 84.8225C203.474 85.2205 203.046 85.6186 202.618 86.0133C202.915 86.0776 203.213 86.1418 203.515 86.2083C202.286 81.9722 201.056 77.7327 199.823 73.4977C199.728 73.1736 199.311 73.0254 199.031 73.2141C198.366 73.6656 197.701 74.1171 197.033 74.5697C197.295 74.6635 197.561 74.7562 197.825 74.8534C196.655 71.1523 195.488 67.4468 194.318 63.7457C194.112 63.0985 193.106 63.4184 193.312 64.0657C194.482 67.7667 195.649 71.4722 196.819 75.1733C196.921 75.4953 197.324 75.6477 197.61 75.4569C198.275 75.0054 198.941 74.5539 199.609 74.1013C199.347 74.0075 199.081 73.9148 198.817 73.8176C200.046 78.0537 201.276 82.2932 202.509 86.5282C202.629 86.9406 203.126 86.9819 203.405 86.7232C203.832 86.3251 204.26 85.927 204.688 85.5323C204.391 85.4681 204.093 85.4039 203.792 85.3374C205.322 88.872 206.848 92.4044 208.378 95.9391C208.562 96.3679 208.75 96.7956 208.934 97.2244C209.145 97.7115 209.173 98.1715 209.221 98.6953C209.307 99.6502 209.396 100.604 209.481 101.556C209.656 103.465 209.827 105.371 210.002 107.28C210.195 109.419 210.391 111.558 210.584 113.697C210.621 114.103 211.045 114.334 211.402 114.12C211.842 113.855 212.277 113.587 212.717 113.322C212.443 113.18 212.173 113.041 211.899 112.899C212.452 117.667 211.158 122.61 208.35 126.505C207.548 127.617 206.631 128.636 205.615 129.553C205.106 130.007 205.895 130.712 206.394 130.259Z" fill="#A0EF92"/>
<path d="M179.976 90.6846C177.601 90.6017 175.631 88.3886 175.704 86.0425C175.712 85.8333 175.511 85.5724 175.293 85.5493C171.848 85.1677 168.98 81.8037 169.338 78.3074C169.372 77.9863 169.176 77.6352 168.801 77.6656C165.46 77.9121 162.25 75.1443 162.047 71.7894C162.03 71.5143 161.789 71.2583 161.498 71.281C158.123 71.5381 154.97 68.5563 155.021 65.1759C155.028 64.8822 154.746 64.6691 154.472 64.6675C151.134 64.6436 148.144 61.3736 148.488 58.0329C148.557 57.365 147.528 57.127 147.459 57.8027C147.043 61.838 150.435 65.6967 154.513 65.7254C154.329 65.5548 154.147 65.3875 153.964 65.2169C153.901 69.1547 157.611 72.635 161.534 72.3365C161.351 72.1659 161.168 71.9987 160.985 71.8281C161.223 75.7366 164.919 79.0075 168.837 78.7178C168.658 78.505 168.479 78.2889 168.3 78.076C167.885 82.1002 170.98 86.1306 175.052 86.5821C174.916 86.4189 174.778 86.2522 174.641 86.089C174.552 89.0381 177.09 91.643 180.01 91.7446C180.696 91.763 180.651 90.7062 179.976 90.6846Z" fill="#A0EF92"/>
<path d="M424.76 287.701C425.613 264.079 426.171 239.147 414.672 218.411C412.877 215.178 410.401 211.809 406.718 211.157C402.769 210.458 398.887 213.328 397.149 216.89C395.411 220.451 395.323 224.548 395.278 228.495C394.684 280.73 395.771 332.985 398.543 385.15C399.045 394.628 407.393 400.589 416.489 394.902C424.306 390.017 421.598 375.246 421.877 367.582C422.836 340.955 423.796 314.328 424.76 287.701Z" fill="#00920F"/>
<path d="M398.553 293.723C391.287 292.865 387.098 284.841 386.691 277.646C386.289 270.45 388.334 263.239 387.525 256.078C386.943 250.928 383.54 245.069 378.286 245.356C375.279 245.522 372.723 247.803 371.42 250.478C370.116 253.152 369.843 256.186 369.642 259.147C368.784 271.958 368.966 284.832 370.183 297.61C370.704 303.081 371.627 308.976 375.597 312.843C381.511 318.606 391.181 317.326 399.326 315.641C399.623 308.087 399.92 300.529 400.218 292.976" fill="#00920F"/>
<path d="M429.819 315.624C430.565 314.432 430.935 313.126 431.856 311.993C432.772 310.861 434.487 309.886 436.283 310.084C438.908 310.373 439.742 312.708 440.008 314.587C440.616 318.83 441.219 323.078 441.826 327.32C442.127 329.43 442.363 331.732 440.714 333.524C438.455 335.977 433.75 336.405 429.673 336.593C424.586 336.824 418.813 336.872 415.336 334.281C412.959 332.504 412.279 329.827 412.8 327.369C413.792 322.696 415.291 322.241 420.018 320.799C424.177 319.526 427.745 318.941 429.819 315.624Z" fill="#00920F"/>
<path d="M402.7 247.819C402.659 246.386 402.617 244.958 402.575 243.525C402.565 243.165 402.231 242.823 401.851 242.852C401.471 242.882 401.156 243.178 401.167 243.566C401.209 244.999 401.25 246.427 401.292 247.86C401.302 248.221 401.637 248.562 402.016 248.533C402.396 248.508 402.712 248.212 402.7 247.819Z" fill="#1B1464"/>
<path d="M415.32 268.944C415.461 267.506 415.598 266.073 415.739 264.634C415.776 264.273 415.362 263.938 415.015 263.962C414.593 263.992 414.367 264.286 414.331 264.675C414.189 266.114 414.053 267.547 413.911 268.985C413.875 269.347 414.289 269.682 414.636 269.658C415.053 269.627 415.279 269.329 415.32 268.944Z" fill="#1B1464"/>
<path d="M408.451 295.466C408.41 294.033 408.368 292.604 408.326 291.172C408.316 290.811 407.982 290.469 407.602 290.499C407.222 290.528 406.907 290.824 406.918 291.213C406.96 292.645 407.001 294.074 407.043 295.506C407.053 295.867 407.388 296.209 407.767 296.179C408.147 296.15 408.463 295.854 408.451 295.466Z" fill="#1B1464"/>
<path d="M390.584 304.215C390.731 303.137 390.873 302.055 391.02 300.978C391.071 300.62 390.904 300.218 390.503 300.137C390.162 300.073 389.703 300.262 389.648 300.648C389.501 301.725 389.359 302.807 389.211 303.885C389.161 304.242 389.328 304.645 389.729 304.725C390.074 304.789 390.534 304.596 390.584 304.215Z" fill="#1B1464"/>
<path d="M370.314 269.49C369.031 268.982 367.747 268.473 366.46 267.969C366.117 267.836 365.686 267.881 365.504 268.247C365.354 268.552 365.42 269.045 365.785 269.187C367.069 269.695 368.352 270.204 369.64 270.708C369.982 270.841 370.413 270.796 370.595 270.43C370.746 270.13 370.68 269.637 370.314 269.49Z" fill="#1B1464"/>
<path d="M370.076 276.01C368.987 276.042 367.893 276.074 366.804 276.105C366.438 276.116 366.091 276.445 366.12 276.819C366.15 277.193 366.45 277.504 366.845 277.492C367.934 277.46 369.028 277.429 370.117 277.397C370.483 277.386 370.83 277.057 370.801 276.683C370.776 276.309 370.471 275.999 370.076 276.01Z" fill="#1B1464"/>
<path d="M369.124 289.314C368.051 289.716 366.972 290.113 365.898 290.514C365.554 290.64 365.297 291.012 365.43 291.383C365.553 291.717 365.941 291.979 366.313 291.843C367.387 291.442 368.465 291.045 369.539 290.644C369.883 290.518 370.14 290.145 370.007 289.775C369.88 289.436 369.491 289.174 369.124 289.314Z" fill="#1B1464"/>
<path d="M436.311 318.641C437.175 317.006 438.034 315.366 438.898 313.731C439.072 313.398 438.956 312.971 438.617 312.791C438.288 312.616 437.836 312.735 437.662 313.069C436.798 314.704 435.939 316.343 435.075 317.978C434.901 318.312 435.017 318.738 435.356 318.918C435.685 319.094 436.133 318.974 436.311 318.641Z" fill="#1B1464"/>
<path d="M435.977 327.685C437.428 327.462 438.873 327.244 440.323 327.022C440.688 326.965 441.038 326.714 441.007 326.308C440.983 325.971 440.671 325.578 440.283 325.635C438.833 325.858 437.387 326.076 435.937 326.298C435.572 326.355 435.223 326.606 435.253 327.012C435.277 327.349 435.589 327.742 435.977 327.685Z" fill="#1B1464"/>
<path d="M402.408 354.562C402.194 353.315 401.979 352.067 401.759 350.82C401.697 350.461 401.207 350.249 400.877 350.36C400.481 350.501 400.341 350.843 400.409 351.229C400.623 352.477 400.838 353.724 401.058 354.971C401.12 355.33 401.61 355.543 401.94 355.432C402.336 355.29 402.471 354.949 402.408 354.562Z" fill="#1B1464"/>
<path d="M407.739 364.663C408.776 363.013 409.809 361.369 410.847 359.72C411.049 359.399 410.885 358.951 410.566 358.78C410.217 358.591 409.808 358.737 409.61 359.057C408.573 360.706 407.54 362.351 406.503 364C406.301 364.321 406.464 364.769 406.784 364.94C407.132 365.129 407.537 364.983 407.739 364.663Z" fill="#1B1464"/>
<path d="M434.014 311.375C433.967 309.767 433.92 308.154 433.873 306.545C433.862 306.171 433.529 305.861 433.149 305.872C432.769 305.884 432.454 306.212 432.465 306.586C432.512 308.195 432.558 309.808 432.605 311.416C432.616 311.791 432.949 312.1 433.33 312.089C433.71 312.078 434.025 311.75 434.014 311.375Z" fill="#1B1464"/>
<path d="M440.075 322.676C441.519 321.764 442.963 320.853 444.407 319.936C444.716 319.742 444.848 319.29 444.633 318.981C444.417 318.673 443.995 318.551 443.663 318.76C442.219 319.672 440.775 320.583 439.331 321.5C439.022 321.694 438.889 322.146 439.105 322.454C439.321 322.763 439.742 322.885 440.075 322.676Z" fill="#1B1464"/>
<path d="M416.12 333.92C416.078 332.487 416.036 331.059 415.995 329.626C415.984 329.266 415.65 328.924 415.27 328.953C414.891 328.983 414.575 329.279 414.586 329.667C414.628 331.1 414.67 332.528 414.711 333.961C414.722 334.322 415.056 334.663 415.436 334.634C415.816 334.609 416.131 334.308 416.12 333.92Z" fill="#1B1464"/>
<path d="M405.525 326.17C405.493 325.098 405.462 324.021 405.431 322.948C405.42 322.588 405.086 322.246 404.707 322.275C404.327 322.305 404.011 322.601 404.023 322.989C404.054 324.062 404.085 325.138 404.116 326.211C404.127 326.571 404.461 326.913 404.841 326.884C405.22 326.859 405.536 326.558 405.525 326.17Z" fill="#1B1464"/>
<path d="M417.341 380.255C417.497 379.177 417.659 378.099 417.815 377.022C417.866 376.664 417.694 376.262 417.297 376.181C416.952 376.112 416.502 376.306 416.443 376.691C416.286 377.769 416.125 378.847 415.969 379.925C415.918 380.283 416.089 380.685 416.486 380.766C416.836 380.83 417.286 380.636 417.341 380.255Z" fill="#1B1464"/>
<path d="M414.677 228.134C414.641 226.882 414.605 225.629 414.568 224.376C414.558 224.016 414.224 223.674 413.844 223.704C413.464 223.733 413.149 224.029 413.16 224.417C413.196 225.67 413.233 226.922 413.269 228.175C413.28 228.536 413.614 228.877 413.993 228.848C414.373 228.818 414.689 228.522 414.677 228.134Z" fill="#1B1464"/>
<path d="M409.071 222.926C408.846 221.499 408.626 220.076 408.402 218.648C408.344 218.289 408.09 217.945 407.677 217.976C407.335 217.999 406.935 218.307 406.993 218.689C407.218 220.117 407.438 221.54 407.663 222.967C407.72 223.327 407.974 223.671 408.387 223.64C408.729 223.612 409.129 223.309 409.071 222.926Z" fill="#1B1464"/>
<path d="M376.735 293.164C376.688 291.555 376.641 289.942 376.595 288.334C376.584 287.959 376.251 287.65 375.87 287.661C375.49 287.672 375.175 288 375.186 288.375C375.233 289.983 375.28 291.596 375.327 293.205C375.338 293.579 375.671 293.889 376.051 293.878C376.436 293.866 376.746 293.538 376.735 293.164Z" fill="#1B1464"/>
<path d="M291.07 354.845C296.453 353.818 302.145 355.704 306.39 359.165C311.776 363.555 315.016 370.589 314.439 377.516C313.862 384.44 309.308 390.987 302.856 393.573C296.408 396.159 288.36 394.42 283.836 389.145C275.557 379.484 276.079 357.706 291.07 354.845Z" fill="#62884B"/>
<path d="M290.793 353.853C295.83 352.89 301.101 354.268 305.322 357.099C309.437 359.862 312.559 363.937 314.239 368.593C315.853 373.06 315.994 378.058 314.395 382.549C312.842 386.909 309.869 390.772 305.896 393.191C301.961 395.59 297.217 396.297 292.72 395.37C288.456 394.492 284.669 392.103 282.105 388.587C280.212 385.995 278.963 382.92 278.234 379.803C277.471 376.529 277.24 373.102 277.658 369.762C278.063 366.515 279.023 363.289 280.838 360.537C282.671 357.761 285.275 355.645 288.406 354.502C289.182 354.226 289.982 354.012 290.793 353.853C291.337 353.747 291.904 353.997 292.062 354.564C292.202 355.064 291.901 355.727 291.35 355.833C290.557 355.989 289.77 356.196 289.008 356.471C288.82 356.537 288.635 356.61 288.451 356.684C288.389 356.708 288.201 356.791 288.362 356.718C288.266 356.76 288.17 356.805 288.075 356.847C287.74 357.003 287.412 357.173 287.088 357.357C286.76 357.544 286.439 357.744 286.125 357.955C285.982 358.052 285.842 358.152 285.703 358.256C285.634 358.308 285.566 358.36 285.498 358.411C285.665 358.284 285.42 358.474 285.368 358.515C284.809 358.974 284.285 359.478 283.802 360.018C283.567 360.284 283.339 360.556 283.122 360.838C283.241 360.683 283.091 360.879 283.05 360.934C282.999 361.003 282.948 361.072 282.901 361.141C282.792 361.292 282.69 361.444 282.589 361.598C282.185 362.211 281.826 362.85 281.504 363.51C281.426 363.668 281.355 363.826 281.281 363.984C281.241 364.077 281.197 364.17 281.156 364.262C281.139 364.304 281.122 364.341 281.105 364.383C281.045 364.527 281.166 364.235 281.105 364.379C280.967 364.719 280.839 365.063 280.718 365.409C280.465 366.141 280.254 366.889 280.081 367.644C279.997 368.011 279.921 368.381 279.855 368.755C279.822 368.933 279.792 369.115 279.766 369.293C279.749 369.4 279.733 369.503 279.72 369.609C279.713 369.664 279.677 369.931 279.687 369.835C279.7 369.729 279.67 369.976 279.667 370.017C279.658 370.109 279.648 370.199 279.638 370.291C279.619 370.49 279.6 370.689 279.584 370.888C279.552 371.285 279.527 371.686 279.516 372.087C279.46 373.67 279.549 375.249 279.751 376.82C279.772 377.002 279.733 376.707 279.772 376.961C279.786 377.053 279.801 377.145 279.815 377.238C279.847 377.436 279.879 377.635 279.915 377.833C279.986 378.227 280.067 378.62 280.151 379.014C280.321 379.773 280.524 380.529 280.758 381.271C280.989 382.003 281.257 382.72 281.549 383.431C281.626 383.616 281.504 383.332 281.584 383.513C281.619 383.595 281.657 383.677 281.692 383.756C281.775 383.944 281.862 384.132 281.952 384.316C282.112 384.644 282.275 384.968 282.452 385.289C282.798 385.928 283.179 386.552 283.594 387.153C283.697 387.303 283.805 387.449 283.912 387.596C283.96 387.664 284.012 387.729 284.06 387.797C284.105 387.855 284.254 388.043 284.129 387.886C284.395 388.22 284.671 388.544 284.961 388.854C286.368 390.363 288.023 391.493 289.923 392.334C293.612 393.97 297.971 394.162 301.817 392.843C305.721 391.503 308.988 388.53 311.032 384.947C313.143 381.251 313.935 376.926 313.206 372.734C312.439 368.309 310.238 364.191 307.008 361.073C303.689 357.87 299.192 355.712 294.542 355.577C293.469 355.546 292.394 355.611 291.34 355.809C290.796 355.912 290.229 355.665 290.071 355.098C289.942 354.626 290.243 353.959 290.793 353.853Z" fill="#8CC63F"/>
<path d="M331.732 317.143C337.155 317.12 342.378 320.126 345.533 324.54C348.689 328.953 349.851 334.616 349.258 340.005C348.797 344.177 347.25 348.349 344.275 351.31C341.99 353.582 338.96 355.036 335.802 355.669C327.926 357.246 319.251 353.35 315.193 346.417C308.053 334.218 317.248 317.209 331.732 317.143Z" fill="#62884B"/>
<path d="M331.726 316.115C336.204 316.094 340.539 318.02 343.802 321.032C347.227 324.19 349.354 328.596 350.092 333.168C350.847 337.854 350.361 342.797 348.377 347.136C347.417 349.235 346.038 351.179 344.29 352.698C342.491 354.257 340.381 355.401 338.121 356.128C329.98 358.751 320.696 355.496 315.55 348.779C313.329 345.881 312.05 342.346 311.757 338.717C311.482 335.282 312.152 331.828 313.503 328.672C316.215 322.341 322.052 317.344 328.956 316.338C329.873 316.202 330.794 316.121 331.726 316.115C333.048 316.104 333.065 318.159 331.739 318.171C329.999 318.185 328.616 318.379 326.937 318.883C325.371 319.351 324.134 319.921 322.708 320.817C320.128 322.443 317.96 324.769 316.421 327.434C315.601 328.854 315.087 330.029 314.617 331.553C314.134 333.125 313.872 334.565 313.785 336.063C313.693 337.68 313.802 339.245 314.091 340.662C314.427 342.294 314.947 343.767 315.664 345.137C319.156 351.823 326.902 355.721 334.334 354.87C338.292 354.417 342.366 352.415 344.836 349.107C347.436 345.638 348.449 341.147 348.375 336.872C348.3 332.522 347.009 328.182 344.373 324.691C341.976 321.513 338.371 319.205 334.474 318.428C333.569 318.249 332.681 318.165 331.739 318.171C330.416 318.176 330.4 316.12 331.726 316.115Z" fill="#8CC63F"/>
<path d="M331.082 333.715C331.859 333.71 332.612 334.144 333.065 334.778C333.518 335.413 333.687 336.227 333.6 337.002C333.535 337.602 333.313 338.199 332.884 338.627C332.557 338.954 332.119 339.162 331.664 339.254C330.532 339.481 329.285 338.92 328.703 337.926C327.678 336.168 328.999 333.724 331.082 333.715Z" fill="#81C163"/>
<path d="M297.07 374.26C297.847 374.255 298.6 374.689 299.053 375.323C299.506 375.957 299.675 376.772 299.588 377.546C299.523 378.146 299.3 378.744 298.871 379.171C298.545 379.499 298.107 379.707 297.652 379.799C296.52 380.025 295.273 379.464 294.691 378.471C293.666 376.713 294.987 374.269 297.07 374.26Z" fill="#81C163"/>
<path d="M330.804 344.666C329.385 344.095 327.881 344.53 326.705 345.568C325.349 346.769 324.754 348.499 324.487 350.289C324.171 352.398 324.274 354.586 324.246 356.714C324.22 359.054 324.19 361.394 324.163 363.738C324.051 373.214 323.938 382.691 323.826 392.168C323.763 397.478 323.7 402.785 323.637 408.096C323.622 409.418 321.566 409.435 321.582 408.109C321.699 398.317 321.813 388.528 321.93 378.736C321.989 373.854 322.044 368.975 322.103 364.093C322.132 361.64 322.162 359.183 322.191 356.73C322.218 354.455 322.159 352.16 322.481 349.904C322.799 347.672 323.652 345.436 325.431 343.966C327.05 342.63 329.3 341.862 331.336 342.682C331.851 342.888 332.217 343.358 332.064 343.942C331.933 344.429 331.322 344.875 330.804 344.666Z" fill="#8CC63F"/>
<path d="M302.148 385.424C302.466 383.133 305.498 382.58 307.224 383.566C309.582 384.915 309.733 388.162 309.987 390.541C310.66 396.789 310.894 403.081 310.69 409.362C310.575 412.881 310.323 416.398 309.933 419.898C309.872 420.45 309.515 420.928 308.912 420.932C308.405 420.935 307.816 420.466 307.878 419.911C308.514 414.168 308.786 408.391 308.685 402.615C308.633 399.714 308.491 396.813 308.251 393.923C308.132 392.492 307.993 391.061 307.83 389.633C307.714 388.637 307.598 387.528 307.195 386.619C307.08 386.363 306.921 386.076 306.765 385.875C306.71 385.803 306.6 385.687 306.517 385.606C306.472 385.561 306.424 385.521 306.379 385.476C306.231 385.34 306.486 385.541 306.355 385.452C306.262 385.391 306.169 385.341 306.073 385.286C306.063 385.28 305.922 385.222 306.025 385.263C306.124 385.303 305.943 385.239 305.925 385.232C305.819 385.202 305.713 385.179 305.603 385.152C305.589 385.149 305.435 385.133 305.551 385.142C305.685 385.155 305.428 385.14 305.404 385.14C305.294 385.137 305.185 385.145 305.072 385.152C304.952 385.16 305.092 385.145 305.113 385.145C305.051 385.156 304.99 385.166 304.932 385.184C304.829 385.208 304.726 385.243 304.627 385.278C304.514 385.317 304.651 385.268 304.665 385.261C304.614 385.289 304.559 385.313 304.508 385.344C304.47 385.365 304.436 385.392 304.399 385.413C304.276 385.489 304.504 385.31 304.402 385.41C304.361 385.448 304.324 385.492 304.283 385.53C304.181 385.624 304.357 385.403 304.286 385.52C304.245 385.589 304.158 385.798 304.218 385.616C304.181 385.733 304.155 385.846 304.138 385.966C304.063 386.515 303.366 386.824 302.879 386.694C302.281 386.526 302.069 385.976 302.148 385.424Z" fill="#8CC63F"/>
<path d="M82.0971 25.7235C78.7934 26.5816 75.4898 27.4397 72.1861 28.2978C70.7415 28.6734 69.0988 29.2062 68.4961 30.5517C68.1677 31.2816 68.231 32.1049 68.3614 32.8741C69.0093 36.6705 73.5365 45.5964 78.6763 41.6497C82.9397 38.3773 83.1152 30.1939 82.0971 25.7235Z" fill="#9E005D"/>
<path d="M60.4636 44.1414C62.2025 47.327 63.945 50.5137 65.6862 53.698C66.3081 54.8349 67.06 56.0748 68.3843 56.3797C69.984 56.7469 71.6409 55.5733 72.8053 54.3337C75.4223 51.5501 79.2923 45.9712 74.717 43.9853C70.7105 42.2455 64.7357 42.8753 60.4636 44.1414Z" fill="#9E005D"/>
<path d="M85.2007 59.8213C88.6247 56.3605 90.8622 51.7476 91.4637 46.9174C91.662 45.323 91.5757 43.4535 90.3052 42.4697C89.2706 41.6661 87.8195 41.7537 86.5151 41.8826C84.7792 42.0515 79.6846 41.6516 78.3614 42.7064C76.955 43.8246 77.6664 46.7461 78.0099 48.4119C78.2467 49.5681 83.731 61.2984 85.2007 59.8213Z" fill="#9E005D"/>
<path d="M76.5399 42.6576C78.1126 45.3741 77.5051 48.6815 77.4298 51.6606C77.3516 54.7304 78.0039 57.7412 79.3877 60.4868C80.7582 63.2093 82.7971 65.5894 85.2965 67.3355C88.0469 69.2561 91.3101 70.101 94.3325 71.4656C97.4247 72.8605 100.806 75.3049 101.088 78.9896C101.127 79.4986 101.927 79.5069 101.886 78.9934C101.638 75.7464 99.2033 73.229 96.5077 71.6698C93.5727 69.9723 90.2033 69.2254 87.2356 67.599C81.7992 64.6204 78.2413 58.6054 78.2181 52.4097C78.2076 49.0318 79.0206 45.351 77.2312 42.2589C76.9748 41.8142 76.2834 42.2128 76.5399 42.6576Z" fill="#9E005D"/>
<path d="M103.653 128.226C100.96 125.577 98.2662 122.928 95.5728 120.278C94.3947 119.12 92.9547 117.863 91.3342 118.056C90.4544 118.159 89.7086 118.687 89.0523 119.249C85.8156 122.023 79.9138 131.397 86.5842 134.034C92.1161 136.222 99.9868 131.735 103.653 128.226Z" fill="#9E005D"/>
<path d="M73.8619 118.156C71.8255 121.618 69.7903 125.085 67.7565 128.549C67.0306 129.786 66.2807 131.205 66.7442 132.636C67.3052 134.364 69.3618 135.27 71.2011 135.671C75.3325 136.573 82.8308 137.076 82.115 131.602C81.4889 126.808 77.4934 121.493 73.8619 118.156Z" fill="#9E005D"/>
<path d="M73.0382 150.562C78.2717 151.846 83.9245 151.348 88.8533 149.172C90.4801 148.454 92.2063 147.309 92.418 145.543C92.5928 144.104 91.6845 142.775 90.8204 141.61C89.673 140.058 87.1557 134.992 85.4017 134.336C83.5401 133.636 81.1704 135.973 79.7838 137.246C78.8206 138.129 70.7999 150.007 73.0382 150.562Z" fill="#9E005D"/>
<path d="M84.4123 132.578C82.727 135.616 79.2408 136.92 76.369 138.543C73.4094 140.214 70.9213 142.545 69.1009 145.421C67.2948 148.27 66.1941 151.56 65.9572 154.926C65.6974 158.63 66.7506 162.209 67.1734 165.855C67.607 169.585 67.2084 174.186 63.8701 176.549C63.4087 176.875 63.8558 177.64 64.3199 177.308C67.2622 175.227 68.2685 171.483 68.2164 168.037C68.1594 164.285 66.9527 160.66 66.8096 156.917C66.5469 150.061 70.2356 143.262 76.1058 139.717C79.3076 137.786 83.2652 136.465 85.184 133.008C85.4605 132.512 84.6888 132.082 84.4123 132.578Z" fill="#9E005D"/>
<path d="M82.0502 353.389C84.3555 336.819 81.0697 319.813 83.7773 303.305C85.7533 291.236 90.8661 279.905 93.5927 267.983C96.3194 256.061 96.3157 242.553 89.0073 232.748C86.9493 257.981 69.1822 278.802 59.6655 302.258C54.4923 315.002 51.7623 328.577 49.0573 342.062C46.0861 356.866 43.1131 371.676 40.1471 386.482C39.2051 391.162 38.3103 396.23 40.3754 400.536C46.7993 413.957 61.2101 396.02 65.768 390.425C74.3786 379.846 80.1645 366.923 82.0502 353.389Z" fill="#8DB539"/>
<path d="M51.6745 306.421C57.6715 288.376 65.4586 270.985 73.2349 253.625C82.8284 232.215 92.4166 210.803 102.01 189.394C80.1135 211.086 62.4358 237.016 50.248 265.321C40.3018 288.421 34.0323 312.902 27.8071 337.271C25.2421 347.298 22.6824 357.327 20.1156 367.36C19.1822 371.016 18.2394 374.75 18.4702 378.515C18.6992 382.285 20.3008 386.165 23.463 388.218C36.8668 396.92 37.4366 364.002 38.7451 357.421C42.1636 340.211 46.1335 323.085 51.6745 306.421Z" fill="#8DB539"/>
<path d="M78.1488 358.762C73.7746 357.536 69.4004 356.311 65.0262 355.085C63.7823 354.734 62.2809 355.287 61.8878 356.621C61.5268 357.844 62.0905 359.384 63.4244 359.76C67.7986 360.986 72.1728 362.211 76.547 363.437C77.7909 363.788 79.2923 363.235 79.6854 361.901C80.0481 360.673 79.4845 359.133 78.1488 358.762Z" fill="#006837"/>
<path d="M51.6051 343.266C56.2531 344.557 60.9046 345.854 65.5526 347.145C66.7982 347.49 68.2978 346.942 68.691 345.608C69.0519 344.385 68.49 342.841 67.1544 342.47C62.5063 341.179 57.8549 339.882 53.2068 338.591C51.9612 338.245 50.4616 338.794 50.0685 340.127C49.7127 341.352 50.2764 342.892 51.6051 343.266Z" fill="#006837"/>
<path d="M73.4806 372.591C70.8964 371.392 68.314 370.188 65.7298 368.989C65.1884 368.739 64.3539 368.854 63.8431 369.108C63.2991 369.375 62.7648 369.935 62.5914 370.525C62.411 371.137 62.393 371.833 62.7111 372.412C63.0429 373.019 63.5019 373.374 64.128 373.664C66.7122 374.863 69.2947 376.067 71.8789 377.265C72.4203 377.515 73.2547 377.4 73.7656 377.146C74.3096 376.879 74.8439 376.32 75.0172 375.729C75.1977 375.117 75.2157 374.421 74.8975 373.842C74.5675 373.23 74.1068 372.881 73.4806 372.591Z" fill="#006837"/>
<path d="M48.5174 311.452C45.512 310.161 42.5084 308.865 39.503 307.574C38.3144 307.062 36.7221 307.898 36.3647 309.11C35.966 310.477 36.6261 311.701 37.9013 312.249C40.9066 313.539 43.9102 314.836 46.9156 316.126C48.1043 316.638 49.6966 315.802 50.054 314.59C50.4578 313.225 49.7926 311.999 48.5174 311.452Z" fill="#006837"/>
<path d="M46.6654 300.12C44.3851 299.338 42.1099 298.559 39.8296 297.778C38.6089 297.359 37.0666 298.032 36.6912 299.314C36.3141 300.601 36.9188 302.004 38.2278 302.453C40.5082 303.234 42.7833 304.013 45.0637 304.795C46.2843 305.213 47.8267 304.54 48.202 303.258C48.5791 301.971 47.9744 300.568 46.6654 300.12Z" fill="#006837"/>
<path d="M42.9482 287.371C44.9157 288.185 46.8833 288.998 48.856 289.813C49.4201 290.047 50.2057 289.956 50.7427 289.694C51.2867 289.427 51.821 288.867 51.9943 288.277C52.3928 286.927 51.7383 285.67 50.4577 285.138C48.4902 284.325 46.5227 283.511 44.55 282.696C43.9859 282.462 43.2003 282.553 42.6633 282.816C42.1193 283.082 41.585 283.642 41.4116 284.233C41.0184 285.584 41.6677 286.84 42.9482 287.371Z" fill="#006837"/>
<path d="M45.6372 281.217C47.5566 282.171 49.4743 283.13 51.3938 284.083C51.9195 284.345 52.7836 284.211 53.2805 283.964C53.8245 283.697 54.3588 283.138 54.5321 282.547C54.7126 281.935 54.7306 281.239 54.4124 280.66C54.2975 280.487 54.1792 280.307 54.0643 280.135C53.7737 279.797 53.4145 279.558 52.9938 279.414C51.0743 278.46 49.1566 277.501 47.2371 276.547C46.7115 276.286 45.8473 276.42 45.3504 276.667C44.8064 276.934 44.2721 277.493 44.0988 278.084C43.9183 278.696 43.9003 279.392 44.2185 279.971C44.3334 280.144 44.4517 280.323 44.5666 280.496C44.859 280.829 45.2182 281.068 45.6372 281.217Z" fill="#006837"/>
<path d="M61.6247 272.01C59.0125 270.843 56.395 269.673 53.7828 268.505C52.7915 268.061 51.4467 268.784 51.1535 269.793C50.8139 270.953 51.3786 271.948 52.4408 272.422C55.0531 273.59 57.6705 274.759 60.2828 275.927C61.274 276.371 62.6189 275.648 62.912 274.64C63.2499 273.484 62.6869 272.485 61.6247 272.01Z" fill="#006837"/>
<path d="M59.1662 261.992C60.9063 262.588 62.6516 263.186 64.3918 263.782C64.9891 263.987 65.7118 263.944 66.2785 263.662C66.8225 263.396 67.3568 262.836 67.5301 262.245C67.9072 260.958 67.3025 259.556 65.9935 259.107C64.2534 258.511 62.5081 257.913 60.768 257.317C60.1706 257.112 59.4479 257.155 58.8812 257.436C58.3372 257.703 57.803 258.263 57.6296 258.853C57.2525 260.14 57.8572 261.543 59.1662 261.992Z" fill="#006837"/>
<path d="M28.3652 341.978C31.1732 342.778 33.9795 343.582 36.7824 344.38C38.2999 344.813 40.1427 344.127 40.6182 342.502C41.0579 340.999 40.3685 339.131 38.7401 338.666C35.932 337.867 33.1258 337.062 30.3229 336.264C28.8054 335.831 26.9626 336.517 26.4871 338.142C26.0474 339.646 26.7368 341.513 28.3652 341.978Z" fill="#006837"/>
<path d="M26.7985 355.156C28.4087 355.708 30.0138 356.258 31.6241 356.81C32.2214 357.014 32.9441 356.972 33.5108 356.69C34.0548 356.424 34.5891 355.864 34.7624 355.273C35.1395 353.986 34.5348 352.583 33.2258 352.135C31.6156 351.583 30.0105 351.033 28.4002 350.481C27.8029 350.277 27.0802 350.319 26.5135 350.601C25.9695 350.867 25.4352 351.427 25.2619 352.018C24.8865 353.3 25.4895 354.708 26.7985 355.156Z" fill="#006837"/>
<path d="M80.8526 311.502C77.8612 310.611 74.8698 309.72 71.8785 308.828C70.6418 308.457 69.1279 309.047 68.7401 310.365C68.3772 311.61 68.9499 313.107 70.2767 313.503C73.2681 314.394 76.2594 315.286 79.2508 316.177C80.4875 316.549 82.0013 315.959 82.3891 314.641C82.7572 313.397 82.1793 311.899 80.8526 311.502Z" fill="#006837"/>
<path d="M64.6558 302.279C69.5614 303.292 74.4688 304.3 79.3744 305.314C80.6381 305.572 82.1053 305.17 82.5128 303.777C82.8488 302.627 82.3318 300.917 80.9762 300.639C76.0706 299.625 71.1632 298.617 66.2576 297.604C64.9939 297.345 63.5268 297.748 63.1192 299.14C62.7832 300.291 63.3003 302 64.6558 302.279Z" fill="#006837"/>
<path d="M57.0794 317.937C63.1332 319.53 69.1869 321.122 75.2407 322.715C76.4864 323.043 77.9823 322.522 78.379 321.178C78.7346 319.971 78.1783 318.393 76.8424 318.04C70.7887 316.447 64.7349 314.855 58.6812 313.262C57.4354 312.934 55.9395 313.455 55.5428 314.799C55.1854 316.011 55.7366 317.587 57.0794 317.937Z" fill="#006837"/>
<path d="M44.5668 375.598C50.1513 377.662 55.7357 379.727 61.322 381.786C62.532 382.235 64.0921 381.51 64.4603 380.249C64.8463 378.936 64.222 377.591 62.9237 377.111C57.3393 375.047 51.7548 372.982 46.1686 370.923C44.9586 370.474 43.3984 371.199 43.0302 372.46C42.6442 373.773 43.2633 375.117 44.5668 375.598Z" fill="#006837"/>
<path d="M42.5283 382.666C48.5659 385.152 54.6105 387.635 60.6481 390.122C61.8439 390.613 63.4237 389.814 63.7865 388.585C64.1849 387.236 63.5322 385.973 62.2499 385.447C56.2123 382.961 50.1677 380.477 44.1301 377.991C42.9343 377.5 41.3544 378.299 40.9917 379.527C40.5984 380.879 41.246 382.139 42.5283 382.666Z" fill="#006837"/>
<path d="M36.6791 370.922C33.3749 370.063 30.0777 369.2 26.7735 368.341C25.526 368.018 24.0336 368.528 23.6352 369.877C23.2795 371.085 23.8341 372.668 25.1718 373.016C28.4759 373.875 31.7731 374.738 35.0773 375.597C36.3248 375.92 37.8172 375.41 38.2157 374.06C38.5695 372.858 38.0219 371.272 36.6791 370.922Z" fill="#006837"/>
<path d="M86.1743 285.518C82.9981 284.726 79.8288 283.93 76.6526 283.138C75.4015 282.825 73.9093 283.318 73.5142 284.674C73.1621 285.871 73.7096 287.475 75.0508 287.813C78.227 288.605 81.3963 289.401 84.5725 290.193C85.8236 290.505 87.3158 290.013 87.7109 288.656C88.056 287.463 87.5155 285.856 86.1743 285.518Z" fill="#006837"/>
<path d="M79.6564 271.711C81.9368 272.492 84.2119 273.272 86.4923 274.053C87.7129 274.471 89.2553 273.798 89.6306 272.517C90.0077 271.23 89.403 269.827 88.094 269.378C85.8137 268.597 83.5385 267.817 81.2582 267.036C80.0375 266.618 78.4952 267.291 78.1198 268.573C77.7375 269.858 78.3422 271.261 79.6564 271.711Z" fill="#006837"/>
<path d="M83.5381 354.044C85.8542 337.425 82.5413 320.549 85.2652 303.96C87.9983 287.309 96.704 271.98 96.755 254.84C96.7804 246.804 94.9286 238.775 90.1021 232.229C89.211 231.018 87.3252 231.864 87.2081 233.205C85.6411 251.822 75.4344 268.059 66.7678 284.104C62.1964 292.567 58.0005 301.188 55.0139 310.346C51.9508 319.726 49.8993 329.39 47.9538 339.049C45.9704 348.886 44.0043 358.724 42.0313 368.565C41.0367 373.518 40.0403 378.476 39.0509 383.43C38.2373 387.499 37.138 391.673 37.348 395.854C37.6289 401.522 41.0785 408.259 47.6377 407.546C50.0848 407.282 52.3317 406.026 54.3243 404.665C56.4968 403.187 58.4477 401.406 60.2849 399.534C70.8381 388.79 78.8826 375.509 82.2909 360.768C82.8025 358.546 83.2171 356.303 83.5381 354.044C83.6601 353.163 82.8299 352.351 81.9951 352.297C81.0458 352.239 80.3765 352.955 80.2476 353.84C78.9966 362.675 76.0544 371.296 71.6918 379.082C68.5384 384.711 64.6283 389.872 60.3392 394.683C60.1885 394.852 59.5944 395.501 59.2632 395.858C58.8253 396.323 58.3821 396.786 57.9373 397.238C56.9987 398.181 56.0343 399.099 55.0234 399.966C53.1555 401.572 51.471 402.846 49.1938 403.767C49.0997 403.804 49.0056 403.841 48.9064 403.877C48.4395 404.054 49.2023 403.793 48.7339 403.94C48.5007 404.011 48.2622 404.08 48.0273 404.139C47.7942 404.193 47.5628 404.241 47.3246 404.275C47.2325 404.29 47.1421 404.3 47.0448 404.313C46.784 404.346 47.2234 404.334 46.7842 404.328C46.5584 404.326 46.3327 404.324 46.1072 404.305C45.977 404.295 45.3408 404.17 45.748 404.269C45.5279 404.217 45.3166 404.156 45.1036 404.083C45.0153 404.053 44.934 404.019 44.8475 403.984C44.4199 403.826 44.8541 404.015 44.6226 403.878C44.4153 403.755 44.2131 403.633 44.0181 403.491C43.9387 403.435 43.8611 403.373 43.7834 403.312C43.3987 403.012 44.0021 403.538 43.6386 403.192C43.1872 402.765 42.7849 402.279 42.4402 401.76C41.6857 400.625 41.0499 398.991 40.7967 397.494C40.1559 393.757 41.079 389.877 41.8145 386.223C42.7747 381.438 43.7349 376.654 44.6951 371.869C46.6156 362.3 48.5342 352.737 50.4546 343.168C52.3479 333.729 54.2483 324.269 57.0012 315.031C59.6611 306.116 63.3226 297.649 67.6437 289.425C76.0054 273.507 86.173 257.994 89.5854 240.056C90.0013 237.859 90.3011 235.646 90.4899 233.418C89.5252 233.743 88.5605 234.069 87.5958 234.394C96.3181 246.222 93.7912 262.305 89.9052 275.408C87.3377 284.071 84.1362 292.551 82.3916 301.437C80.7831 309.621 80.7308 317.973 80.9029 326.28C81.0919 335.469 81.52 344.722 80.2474 353.857C80.1255 354.738 80.9505 355.549 81.7904 355.605C82.7399 355.646 83.4162 354.925 83.5381 354.044Z" fill="#D9E021"/>
<path d="M53.4177 306.978C58.5937 291.397 65.1044 276.308 71.7878 261.325C78.581 246.089 85.4262 230.871 92.2435 215.649C96.0778 207.084 99.9173 198.52 103.752 189.955C104.417 188.471 102.249 187.055 101.117 188.176C84.2099 204.944 69.7658 224.164 58.4277 245.11C46.3276 267.466 38.4066 291.55 31.8229 316.016C28.4541 328.525 25.3192 341.097 22.1098 353.649C20.5321 359.812 18.6696 365.976 17.4957 372.231C16.5289 377.391 16.7522 383.092 20.2139 387.337C22.1562 389.714 25.4099 391.636 28.5783 391.282C30.9334 391.015 32.8087 389.354 34.0679 387.44C37.3231 382.513 38.2196 376 39.0192 370.279C39.4054 367.492 39.7013 364.697 40.0024 361.904C40.3129 359.032 40.8204 356.264 41.4032 353.428C43.9843 340.846 46.9052 328.323 50.571 316.015C51.4749 312.987 52.4203 309.974 53.4177 306.978C54.0839 304.966 50.9691 303.893 50.3011 305.91C46.3699 317.774 43.2111 329.873 40.4891 342.069C39.3076 347.364 38.0007 352.703 37.1624 358.063C36.8324 360.161 36.6601 362.291 36.4288 364.405C35.7952 370.219 35.151 376.046 33.2365 381.566C32.8238 382.754 32.3153 383.967 31.8378 384.801C31.2491 385.842 30.7556 386.52 30.0908 387.105C29.9141 387.265 29.7254 387.409 29.5332 387.546C29.3254 387.696 29.8665 387.353 29.5141 387.551C29.4059 387.613 29.2977 387.675 29.1862 387.729C29.0815 387.781 28.4963 387.998 28.9002 387.869C28.6652 387.945 28.4234 387.99 28.1817 388.035C28.1069 388.05 27.6935 388.071 28.1051 388.055C27.9766 388.058 27.8463 388.065 27.7162 388.056C27.4906 388.036 27.2684 388.024 27.0482 387.989C26.5956 387.921 27.3808 388.086 26.9252 387.959C26.8299 387.932 26.7346 387.905 26.6393 387.878C26.3137 387.778 25.99 387.656 25.6787 387.514C24.3293 386.913 22.6866 385.456 21.8195 383.87C20.6804 381.791 20.2259 379.441 20.2664 377.087C20.3181 374.226 20.9647 371.441 21.6666 368.681C22.4279 365.679 23.1996 362.682 23.9678 359.677C27.0893 347.467 30.164 335.24 33.367 323.046C39.6386 299.152 46.7534 275.337 57.907 253.202C68.2502 232.67 81.5471 213.58 97.2886 196.825C99.2456 194.738 101.247 192.69 103.278 190.676C102.401 190.085 101.521 189.487 100.643 188.896C93.812 204.142 86.9857 219.39 80.1542 234.636C73.3634 249.798 66.396 264.898 60.0186 280.242C56.5013 288.695 53.1986 297.233 50.3131 305.926C49.6297 307.921 52.7446 308.994 53.4177 306.978Z" fill="#D9E021"/>
<path d="M407.035 192.552C404.574 182.26 400.919 172.241 396.199 162.773C391.462 153.27 385.653 144.284 379.006 136.007C372.365 127.745 364.841 120.214 356.642 113.503C348.54 106.865 339.737 101.078 330.407 96.3184C320.978 91.5087 311.081 87.6832 300.809 85.1119C299.567 84.8008 298.321 84.5102 297.069 84.2363C295.792 83.9565 294.3 84.3838 293.881 85.785C293.53 86.963 294.063 88.672 295.43 88.9733C305.554 91.2031 315.4 94.6172 324.756 99.0769C325.301 99.3371 325.841 99.5991 326.383 99.8649C326.495 99.9222 326.923 100.136 326.476 99.9126C326.604 99.9757 326.728 100.041 326.857 100.104C327.174 100.26 327.49 100.423 327.805 100.585C328.941 101.166 330.072 101.763 331.19 102.375C333.465 103.619 335.704 104.922 337.907 106.284C342.286 108.993 346.521 111.93 350.597 115.084C352.677 116.691 354.716 118.356 356.705 120.072C356.921 120.26 357.136 120.443 357.348 120.632C357.709 120.945 357.413 120.689 357.341 120.627C357.472 120.744 357.609 120.863 357.74 120.98C358.245 121.427 358.748 121.879 359.247 122.333C360.195 123.195 361.129 124.068 362.055 124.951C365.804 128.542 369.363 132.323 372.721 136.284C376.076 140.238 379.225 144.371 382.147 148.656C382.307 148.889 382.468 149.127 382.624 149.362C382.705 149.48 382.78 149.597 382.861 149.715C382.863 149.719 383.248 150.303 383.03 149.968C382.843 149.687 383.096 150.065 383.138 150.133C383.234 150.282 383.333 150.429 383.428 150.577C383.623 150.873 383.815 151.174 384.006 151.471C384.696 152.547 385.371 153.63 386.036 154.722C387.377 156.939 388.661 159.189 389.878 161.475C392.3 166.013 394.474 170.679 396.38 175.453C397.355 177.89 398.249 180.361 399.089 182.845C399.125 182.948 399.244 183.317 399.078 182.813C399.121 182.95 399.166 183.081 399.21 183.218C399.307 183.523 399.408 183.827 399.503 184.129C399.709 184.772 399.907 185.418 400.099 186.063C400.466 187.286 400.818 188.517 401.149 189.753C401.481 190.989 401.795 192.229 402.094 193.476C402.397 194.749 403.651 195.802 405.014 195.483C406.291 195.178 407.357 193.913 407.035 192.552Z" fill="#00684F"/>
<path d="M298.765 88.4253C293.494 77.8319 279.868 72.3504 269.099 76.4861C274.897 85.575 286.272 90.6647 296.636 88.8098" fill="#009E81"/>
<path d="M317.506 92.1971C321.881 82.646 317.866 70.0821 308.766 64.8391C305.747 73.9222 308.738 84.6949 316.009 90.9196" fill="#009E81"/>
<path d="M339.77 104.836C344.144 95.2846 340.13 82.7207 331.03 77.4778C328.011 86.5609 331.004 97.3373 338.278 103.56" fill="#009E81"/>
<path d="M365.796 123.709C370.17 114.158 366.156 101.594 357.055 96.3513C354.036 105.434 357.029 116.211 364.304 122.434" fill="#009E81"/>
<path d="M331.142 116.063C332.918 122.692 338.234 128.256 344.772 130.334C351.633 132.515 367.926 129.298 359.808 120.059C354.141 113.608 338.445 114.118 331.142 116.063Z" fill="#009E81"/>
<path d="M386.2 110.15C391.535 114.608 394.729 121.528 394.663 128.48C394.596 135.414 391.208 143.02 385.294 146.821C376.809 136.434 376.078 119.996 386.2 110.15Z" fill="#009E81"/>
<path d="M384.521 147.781C379.283 152.354 371.949 154.427 365.091 153.274C358.253 152.126 351.27 147.591 348.436 141.156C360.027 134.402 376.379 136.248 384.521 147.781Z" fill="#009E81"/>
<path d="M333.009 99.9651C321.31 92.5078 305.14 92.8247 293.74 100.734C298.109 106.911 305.626 110.728 313.189 110.609C320.753 110.49 328.151 106.447 332.327 100.138" fill="#009E81"/>
<circle cx="318.099" cy="72" r="9" fill="#E9A0A0"/>
<circle cx="359.099" cy="115" r="9" fill="#E9A0A0"/>
</g>
<defs>
<filter id="filter0_d_475_32" x="0.0993347" y="0" width="448.639" height="428.932" filterUnits="userSpaceOnUse" color-interpolation-filters="sRGB">
<feFlood flood-opacity="0" result="BackgroundImageFix"/>
<feColorMatrix in="SourceAlpha" type="matrix" values="0 0 0 0 0 0 0 0 0 0 0 0 0 0 0 0 0 0 127 0" result="hardAlpha"/>
<feOffset dy="4"/>
<feGaussianBlur stdDeviation="2"/>
<feComposite in2="hardAlpha" operator="out"/>
<feColorMatrix type="matrix" values="0 0 0 0 0 0 0 0 0 0 0 0 0 0 0 0 0 0 0.25 0"/>
<feBlend mode="normal" in2="BackgroundImageFix" result="effect1_dropShadow_475_32"/>
<feBlend mode="normal" in="SourceGraphic" in2="effect1_dropShadow_475_32" result="shape"/>
</filter>
</defs>
</svg>
