<svg width="55" height="55" viewBox="0 0 55 55" fill="none" xmlns="http://www.w3.org/2000/svg">
<g filter="url(#filter0_i_197_83)">
<path d="M55 27.5C55 42.6878 42.6878 55 27.5 55C12.3122 55 0 42.6878 0 27.5C0 12.3122 12.3122 0 27.5 0C42.6878 0 55 12.3122 55 27.5Z" fill="white"/>
</g>
<path d="M54.5 27.5C54.5 42.4117 42.4117 54.5 27.5 54.5C12.5883 54.5 0.5 42.4117 0.5 27.5C0.5 12.5883 12.5883 0.5 27.5 0.5C42.4117 0.5 54.5 12.5883 54.5 27.5Z" stroke="black"/>
<g filter="url(#filter1_d_197_83)">
<mask id="path-3-inside-1_197_83" fill="white">
<path fill-rule="evenodd" clip-rule="evenodd" d="M34.8164 42.5299C29.423 42.5299 25.0508 38.0536 25.0508 32.5318C25.0508 27.01 29.423 22.5337 34.8164 22.5337C40.2097 22.5337 44.5819 27.01 44.5819 32.5318C44.5819 34.1368 44.2126 35.6535 43.5561 36.9976L46.0465 42.6991L39.8827 41.0809C38.4056 42.0004 36.6714 42.5299 34.8164 42.5299Z"/>
</mask>
<path fill-rule="evenodd" clip-rule="evenodd" d="M34.8164 42.5299C29.423 42.5299 25.0508 38.0536 25.0508 32.5318C25.0508 27.01 29.423 22.5337 34.8164 22.5337C40.2097 22.5337 44.5819 27.01 44.5819 32.5318C44.5819 34.1368 44.2126 35.6535 43.5561 36.9976L46.0465 42.6991L39.8827 41.0809C38.4056 42.0004 36.6714 42.5299 34.8164 42.5299Z" fill="#C0C0C0"/>
<path d="M43.5561 36.9976L42.6397 37.3979L42.4546 36.9742L42.6575 36.5587L43.5561 36.9976ZM46.0465 42.6991L46.9629 42.2989L47.7892 44.1906L45.7926 43.6664L46.0465 42.6991ZM39.8827 41.0809L39.3543 40.2319L39.72 40.0042L40.1367 40.1136L39.8827 41.0809ZM26.0508 32.5318C26.0508 37.5236 29.9973 41.5299 34.8164 41.5299V43.5299C28.8486 43.5299 24.0508 38.5836 24.0508 32.5318H26.0508ZM34.8164 23.5337C29.9973 23.5337 26.0508 27.54 26.0508 32.5318H24.0508C24.0508 26.48 28.8486 21.5337 34.8164 21.5337V23.5337ZM43.5819 32.5318C43.5819 27.54 39.6354 23.5337 34.8164 23.5337V21.5337C40.7841 21.5337 45.5819 26.48 45.5819 32.5318H43.5819ZM42.6575 36.5587C43.2484 35.3489 43.5819 33.982 43.5819 32.5318H45.5819C45.5819 34.2916 45.1767 35.9581 44.4546 37.4365L42.6575 36.5587ZM45.1301 43.0994L42.6397 37.3979L44.4724 36.5973L46.9629 42.2989L45.1301 43.0994ZM40.1367 40.1136L46.3004 41.7319L45.7926 43.6664L39.6288 42.0481L40.1367 40.1136ZM34.8164 41.5299C36.4781 41.5299 38.0302 41.0562 39.3543 40.2319L40.4112 41.9298C38.7811 42.9445 36.8647 43.5299 34.8164 43.5299V41.5299Z" fill="black" mask="url(#path-3-inside-1_197_83)"/>
</g>
<mask id="path-5-inside-2_197_83" fill="white">
<path fill-rule="evenodd" clip-rule="evenodd" d="M25.8553 41.88C33.9724 41.88 40.5526 35.1431 40.5526 26.8328C40.5526 18.5225 33.9724 11.7856 25.8553 11.7856C17.7383 11.7856 11.1581 18.5225 11.1581 26.8328C11.1581 29.2482 11.714 31.5306 12.7019 33.5534L8.95349 42.1347L18.2304 39.6991C20.4534 41.083 23.0635 41.88 25.8553 41.88Z"/>
</mask>
<path fill-rule="evenodd" clip-rule="evenodd" d="M25.8553 41.88C33.9724 41.88 40.5526 35.1431 40.5526 26.8328C40.5526 18.5225 33.9724 11.7856 25.8553 11.7856C17.7383 11.7856 11.1581 18.5225 11.1581 26.8328C11.1581 29.2482 11.714 31.5306 12.7019 33.5534L8.95349 42.1347L18.2304 39.6991C20.4534 41.083 23.0635 41.88 25.8553 41.88Z" fill="#E5E5E5"/>
<path d="M12.7019 33.5534L13.6183 33.9537L13.8033 33.53L13.6004 33.1145L12.7019 33.5534ZM8.95349 42.1347L8.0371 41.7345L7.21079 43.6262L9.20743 43.102L8.95349 42.1347ZM18.2304 39.6991L18.7589 38.8502L18.3931 38.6225L17.9764 38.7319L18.2304 39.6991ZM39.5526 26.8328C39.5526 34.6132 33.3981 40.88 25.8553 40.88V42.88C34.5467 42.88 41.5526 35.6731 41.5526 26.8328H39.5526ZM25.8553 12.7856C33.3981 12.7856 39.5526 19.0525 39.5526 26.8328H41.5526C41.5526 17.9925 34.5467 10.7856 25.8553 10.7856V12.7856ZM12.1581 26.8328C12.1581 19.0525 18.3126 12.7856 25.8553 12.7856V10.7856C17.1639 10.7856 10.1581 17.9925 10.1581 26.8328H12.1581ZM13.6004 33.1145C12.6781 31.226 12.1581 29.0934 12.1581 26.8328H10.1581C10.1581 29.4029 10.7498 31.8352 11.8033 33.9922L13.6004 33.1145ZM9.86988 42.535L13.6183 33.9537L11.7855 33.1531L8.0371 41.7345L9.86988 42.535ZM17.9764 38.7319L8.69955 41.1675L9.20743 43.102L18.4843 40.6663L17.9764 38.7319ZM25.8553 40.88C23.2568 40.88 20.8289 40.1388 18.7589 38.8502L17.7019 40.5481C20.0779 42.0272 22.8702 42.88 25.8553 42.88V40.88Z" fill="black" mask="url(#path-5-inside-2_197_83)"/>
<path d="M15.3489 22.262L31.9768 22.262" stroke="black" stroke-linecap="round"/>
<path d="M17.907 32.7382L31.9767 32.7382" stroke="black" stroke-linecap="round"/>
<path d="M19.186 27.5L35.8139 27.5" stroke="black" stroke-linecap="round"/>
<defs>
<filter id="filter0_i_197_83" x="0" y="0" width="55" height="55" filterUnits="userSpaceOnUse" color-interpolation-filters="sRGB">
<feFlood flood-opacity="0" result="BackgroundImageFix"/>
<feBlend mode="normal" in="SourceGraphic" in2="BackgroundImageFix" result="shape"/>
<feColorMatrix in="SourceAlpha" type="matrix" values="0 0 0 0 0 0 0 0 0 0 0 0 0 0 0 0 0 0 127 0" result="hardAlpha"/>
<feOffset/>
<feGaussianBlur stdDeviation="3"/>
<feComposite in2="hardAlpha" operator="arithmetic" k2="-1" k3="1"/>
<feColorMatrix type="matrix" values="0 0 0 0 0 0 0 0 0 0 0 0 0 0 0 0 0 0 0.3 0"/>
<feBlend mode="normal" in2="shape" result="effect1_innerShadow_197_83"/>
</filter>
<filter id="filter1_d_197_83" x="21.0508" y="22.5337" width="28.9957" height="28.1654" filterUnits="userSpaceOnUse" color-interpolation-filters="sRGB">
<feFlood flood-opacity="0" result="BackgroundImageFix"/>
<feColorMatrix in="SourceAlpha" type="matrix" values="0 0 0 0 0 0 0 0 0 0 0 0 0 0 0 0 0 0 127 0" result="hardAlpha"/>
<feOffset dy="4"/>
<feGaussianBlur stdDeviation="2"/>
<feComposite in2="hardAlpha" operator="out"/>
<feColorMatrix type="matrix" values="0 0 0 0 0 0 0 0 0 0 0 0 0 0 0 0 0 0 0.25 0"/>
<feBlend mode="normal" in2="BackgroundImageFix" result="effect1_dropShadow_197_83"/>
<feBlend mode="normal" in="SourceGraphic" in2="effect1_dropShadow_197_83" result="shape"/>
</filter>
</defs>
</svg>
